<svg width="227" height="64" viewBox="0 0 227 64" fill="none" xmlns="http://www.w3.org/2000/svg">
<path d="M2.97397 25.6297L8.66973 28.4776C7.57424 21.5085 7.108 11.0954 10.7075 6.29585C15.1692 0.346969 18.689 0 25.5302 0C25.431 2.5778 25.9268 3.96597 25.9268 3.96597C25.9268 3.96597 27.8106 3.27188 29.496 2.97444C28.5405 5.6498 29.1543 11.7114 31.1873 12.917C33.2203 14.1223 37.2067 16.6441 37.2067 16.6441L34.8579 20.4375C34.8579 20.4375 30.1279 17.5172 30.0909 17.4998C27.7942 16.4119 27.9344 17.1775 24.8856 17.7724C21.743 18.3856 18.4411 16.4092 18.4411 16.4092C18.4411 16.4092 27.3644 23.8453 27.3644 32.7687C27.3644 41.692 20.1863 45.3659 17.5983 48.6819C14.4256 52.7469 15.1197 58.9933 21.0685 58.9933C24.3703 58.7281 25.7906 56.4996 25.8669 54.1614C25.8198 53.6173 25.6706 53.0813 25.419 52.578C24.8685 51.4772 23.7562 50.7939 22.529 50.8023L22.5153 47.8278C22.5251 47.8278 22.5346 47.8277 22.5446 47.8277C24.4631 47.8277 26.2224 48.6925 27.3806 50.1503C29.4609 52.5853 30.2005 57.928 27.0174 61.0751C25.282 62.791 22.9039 64 19.9283 64C12.4922 64 8.03052 58.0511 8.03052 52.1022C8.03052 47.3231 9.94844 41.5845 9.93223 36.4278L2.97397 39.907C2.97397 39.907 0.594421 37.9476 0.594421 32.7684C0.594421 27.5891 2.97397 25.6297 2.97397 25.6297ZM25.8772 13.4345C26.6986 13.4345 27.3644 12.7687 27.3644 11.9473C27.3644 11.1259 26.6986 10.4601 25.8772 10.4601C25.0558 10.4601 24.3899 11.1259 24.3899 11.9473C24.3899 12.7687 25.0558 13.4345 25.8772 13.4345Z" fill="#3D6ADD"/>
<path d="M60.17 20.39V28.79H49.88V20.39H46.13V41H49.88V32.21H60.17V41H63.92V20.39H60.17ZM69.9305 23.15C71.0705 23.15 72.0005 22.16 72.0005 21.05C72.0005 19.94 71.0705 18.98 69.9305 18.98C68.7605 18.98 67.8305 19.94 67.8305 21.05C67.8305 22.16 68.7605 23.15 69.9305 23.15ZM68.0705 41H71.7305V25.49H68.0705V41ZM84.9256 25.13C82.6156 25.13 80.7556 26.18 79.5256 27.95V25.49H75.8656V46.16H79.5256V38.54C80.7556 40.31 82.6156 41.36 84.9256 41.36C89.0356 41.36 92.0356 38 92.0356 33.23C92.0356 28.49 89.0356 25.13 84.9256 25.13ZM83.9356 38.24C81.3556 38.24 79.5556 36.14 79.5556 33.23C79.5556 30.32 81.3556 28.25 83.9356 28.25C86.5456 28.25 88.4056 30.32 88.4056 33.23C88.4056 36.14 86.5456 38.24 83.9356 38.24ZM102.846 41.36C107.346 41.36 111.156 37.64 111.156 33.23C111.156 28.82 107.346 25.13 102.846 25.13C98.3459 25.13 94.5359 28.82 94.5359 33.23C94.5359 37.64 98.3459 41.36 102.846 41.36ZM102.846 38.24C100.266 38.24 98.1059 35.96 98.1059 33.23C98.1059 30.53 100.266 28.25 102.846 28.25C105.396 28.25 107.556 30.53 107.556 33.23C107.556 35.96 105.396 38.24 102.846 38.24ZM121.8 41.36C124.26 41.36 126.33 40.34 127.83 38.75L125.37 36.62C124.5 37.61 123.18 38.24 121.83 38.24C119.28 38.24 117.15 35.96 117.15 33.23C117.15 30.53 119.28 28.25 121.83 28.25C123.15 28.25 124.44 28.88 125.28 29.81L127.74 27.65C126.27 26.12 124.2 25.13 121.86 25.13C117.33 25.13 113.52 28.82 113.52 33.23C113.52 37.64 117.33 41.36 121.8 41.36ZM137.457 25.13C135.507 25.13 133.467 25.67 131.277 26.75L132.537 29.3C133.857 28.64 135.267 28.13 136.737 28.13C139.557 28.13 140.547 29.87 140.547 31.67V32.09C139.137 31.55 137.607 31.25 136.197 31.25C132.717 31.25 129.867 33.35 129.867 36.41C129.867 39.41 132.357 41.36 135.657 41.36C137.457 41.36 139.407 40.58 140.547 39.14V41H144.117V31.67C144.117 27.74 141.567 25.13 137.457 25.13ZM136.467 38.69C134.727 38.69 133.437 37.76 133.437 36.29C133.437 34.82 134.907 33.8 136.737 33.8C138.117 33.8 139.407 34.01 140.547 34.4V36.14C140.127 37.79 138.237 38.69 136.467 38.69ZM165.99 25.13C163.68 25.13 161.73 26.27 160.98 28.07C160.02 26.24 158.22 25.13 156.03 25.13C154.08 25.13 152.49 26.09 151.71 27.59V25.49H148.05V41H151.71V31.49C151.71 29.6 153.12 28.25 155.1 28.25C156.9 28.25 158.13 29.69 158.13 31.73V41H161.7V31.49C161.7 29.6 163.08 28.25 165.09 28.25C166.86 28.25 168.09 29.69 168.09 31.73V41H171.66V31.13C171.66 27.62 169.23 25.13 165.99 25.13ZM184.769 25.13C182.459 25.13 180.599 26.18 179.369 27.95V25.49H175.709V46.16H179.369V38.54C180.599 40.31 182.459 41.36 184.769 41.36C188.879 41.36 191.879 38 191.879 33.23C191.879 28.49 188.879 25.13 184.769 25.13ZM183.779 38.24C181.199 38.24 179.399 36.14 179.399 33.23C179.399 30.32 181.199 28.25 183.779 28.25C186.389 28.25 188.249 30.32 188.249 33.23C188.249 36.14 186.389 38.24 183.779 38.24ZM205.69 25.49V35.3C205.45 36.95 203.86 38.24 201.94 38.24C200.02 38.24 198.67 36.74 198.67 34.64V25.49H195.13V35.36C195.13 38.87 197.5 41.36 200.89 41.36C202.93 41.36 204.73 40.37 205.69 38.93V41H209.35V25.49H205.69ZM219.113 41.36C222.743 41.36 225.203 39.44 225.203 36.47C225.203 33.23 222.383 32.33 219.773 31.61C217.403 30.92 216.593 30.62 216.593 29.63C216.593 28.76 217.583 28.25 218.873 28.25C220.223 28.25 221.813 28.73 223.283 29.66L224.813 26.99C223.133 25.88 221.003 25.13 218.873 25.13C215.423 25.13 213.023 27.11 213.023 30.02C213.053 32.78 215.183 33.74 218.543 34.61C220.313 35.09 221.663 35.48 221.663 36.68C221.663 37.64 220.643 38.27 219.173 38.27C217.223 38.27 215.483 37.55 213.983 36.47L212.333 39.02C214.193 40.52 216.743 41.36 219.113 41.36Z" fill="#222222"/>
</svg>
