<svg data-v-fde0c5aa="" xmlns="http://www.w3.org/2000/svg" viewBox="0 0 300 300" class="iconLeftSlogan"><!----><defs data-v-fde0c5aa=""><!----></defs><rect data-v-fde0c5aa="" fill="#00acff" x="0" y="0" width="300px" height="300px" class="logo-background-square"></rect><defs data-v-fde0c5aa=""><!----></defs><g data-v-fde0c5aa="" id="5e1ce65b-b768-4a6b-9c34-37bd67a7d848" fill="#ffffff" transform="matrix(2.252253948488039,0,0,2.252253948488039,78.85120806051303,126.24998908761634)"><path d="M6.69 1.36L8.65 1.36L8.65 10.50L6.69 10.50L6.69 6.57L3.08 6.57L3.08 10.50L1.13 10.50L1.13 1.36L3.08 1.36L3.08 5.01L6.69 5.01L6.69 1.36ZM12.77 10.50L10.88 10.50L10.88 3.29L12.77 3.29L12.77 10.50ZM12.87 1.02L12.87 1.02L12.87 1.02Q12.87 1.47 12.56 1.78L12.56 1.78L12.56 1.78Q12.25 2.09 11.82 2.09L11.82 2.09L11.82 2.09Q11.37 2.09 11.06 1.78L11.06 1.78L11.06 1.78Q10.75 1.47 10.75 1.02L10.75 1.02L10.75 1.02Q10.75 0.59 11.06 0.29L11.06 0.29L11.06 0.29Q11.37-0.01 11.82-0.01L11.82-0.01L11.82-0.01Q12.25-0.01 12.56 0.29L12.56 0.29L12.56 0.29Q12.87 0.59 12.87 1.02ZM18.91 10.65L18.91 10.65L18.91 10.65Q18.37 10.65 17.96 10.49L17.96 10.49L17.96 10.49Q17.56 10.32 17.28 10.11L17.28 10.11L17.28 10.11Q16.95 9.87 16.72 9.56L16.72 9.56L16.72 12.22L14.84 12.22L14.84 3.29L16.30 3.29L16.66 4.24L16.66 4.24Q16.87 3.93 17.19 3.68L17.19 3.68L17.19 3.68Q17.47 3.47 17.89 3.30L17.89 3.30L17.89 3.30Q18.31 3.12 18.91 3.12L18.91 3.12L18.91 3.12Q19.74 3.12 20.31 3.42L20.31 3.42L20.31 3.42Q20.89 3.72 21.25 4.23L21.25 4.23L21.25 4.23Q21.60 4.73 21.76 5.41L21.76 5.41L21.76 5.41Q21.92 6.09 21.92 6.85L21.92 6.85L21.92 6.85Q21.92 7.60 21.76 8.29L21.76 8.29L21.76 8.29Q21.60 8.99 21.25 9.51L21.25 9.51L21.25 9.51Q20.89 10.04 20.31 10.35L20.31 10.35L20.31 10.35Q19.74 10.65 18.91 10.65ZM18.33 4.59L18.33 4.59L18.33 4.59Q17.65 4.59 17.19 5.14L17.19 5.14L17.19 5.14Q16.72 5.68 16.72 6.85L16.72 6.85L16.72 6.85Q16.72 7.99 17.19 8.60L17.19 8.60L17.19 8.60Q17.65 9.20 18.33 9.20L18.33 9.20L18.33 9.20Q18.66 9.20 18.96 9.04L18.96 9.04L18.96 9.04Q19.25 8.89 19.47 8.60L19.47 8.60L19.47 8.60Q19.68 8.30 19.82 7.86L19.82 7.86L19.82 7.86Q19.95 7.42 19.95 6.85L19.95 6.85L19.95 6.85Q19.95 6.27 19.82 5.84L19.82 5.84L19.82 5.84Q19.68 5.42 19.47 5.14L19.47 5.14L19.47 5.14Q19.25 4.86 18.96 4.72L18.96 4.72L18.96 4.72Q18.66 4.59 18.33 4.59ZM26.66 3.12L26.66 3.12L26.66 3.12Q27.22 3.12 27.87 3.29L27.87 3.29L27.87 3.29Q28.53 3.46 29.11 3.88L29.11 3.88L29.11 3.88Q29.68 4.30 30.07 5.03L30.07 5.03L30.07 5.03Q30.45 5.75 30.45 6.89L30.45 6.89L30.45 6.89Q30.45 8.02 30.07 8.75L30.07 8.75L30.07 8.75Q29.68 9.48 29.11 9.90L29.11 9.90L29.11 9.90Q28.53 10.32 27.87 10.49L27.87 10.49L27.87 10.49Q27.22 10.65 26.66 10.65L26.66 10.65L26.66 10.65Q26.10 10.65 25.44 10.49L25.44 10.49L25.44 10.49Q24.78 10.32 24.21 9.90L24.21 9.90L24.21 9.90Q23.65 9.48 23.27 8.75L23.27 8.75L23.27 8.75Q22.89 8.02 22.89 6.89L22.89 6.89L22.89 6.89Q22.89 5.75 23.27 5.03L23.27 5.03L23.27 5.03Q23.65 4.30 24.21 3.88L24.21 3.88L24.21 3.88Q24.78 3.46 25.44 3.29L25.44 3.29L25.44 3.29Q26.10 3.12 26.66 3.12ZM26.66 9.25L26.66 9.25L26.66 9.25Q27.44 9.25 27.97 8.64L27.97 8.64L27.97 8.64Q28.49 8.02 28.49 6.89L28.49 6.89L28.49 6.89Q28.49 5.75 27.97 5.14L27.97 5.14L27.97 5.14Q27.44 4.54 26.66 4.54L26.66 4.54L26.66 4.54Q25.90 4.54 25.38 5.14L25.38 5.14L25.38 5.14Q24.86 5.75 24.86 6.89L24.86 6.89L24.86 6.89Q24.86 7.45 25.00 7.89L25.00 7.89L25.00 7.89Q25.14 8.33 25.38 8.63L25.38 8.63L25.38 8.63Q25.62 8.93 25.95 9.09L25.95 9.09L25.95 9.09Q26.28 9.25 26.66 9.25ZM35.22 3.12L35.22 3.12L35.22 3.12Q35.66 3.12 35.99 3.18L35.99 3.18L35.99 3.18Q36.33 3.23 36.57 3.30L36.57 3.30L36.57 3.30Q36.83 3.39 37.06 3.49L37.06 3.49L37.06 4.82L37.06 4.82Q36.51 4.65 35.88 4.59L35.88 4.59L35.88 4.59Q35.24 4.54 34.69 4.74L34.69 4.74L34.69 4.74Q34.15 4.94 33.78 5.45L33.78 5.45L33.78 5.45Q33.42 5.95 33.42 6.89L33.42 6.89L33.42 6.89Q33.42 7.87 33.78 8.38L33.78 8.38L33.78 8.38Q34.15 8.89 34.69 9.06L34.69 9.06L34.69 9.06Q35.24 9.24 35.88 9.15L35.88 9.15L35.88 9.15Q36.51 9.06 37.06 8.85L37.06 8.85L37.06 10.23L37.06 10.23Q36.85 10.36 36.57 10.44L36.57 10.44L36.57 10.44Q36.33 10.53 35.99 10.59L35.99 10.59L35.99 10.59Q35.64 10.65 35.21 10.65L35.21 10.65L35.21 10.65Q34.66 10.65 34.01 10.51L34.01 10.51L34.01 10.51Q33.35 10.37 32.78 9.97L32.78 9.97L32.78 9.97Q32.21 9.56 31.84 8.83L31.84 8.83L31.84 8.83Q31.46 8.09 31.46 6.89L31.46 6.89L31.46 6.89Q31.46 5.70 31.84 4.96L31.84 4.96L31.84 4.96Q32.21 4.21 32.78 3.81L32.78 3.81L32.78 3.81Q33.35 3.40 34.01 3.26L34.01 3.26L34.01 3.26Q34.66 3.12 35.22 3.12ZM41.12 3.12L41.12 3.12L41.12 3.12Q41.58 3.12 42.11 3.27L42.11 3.27L42.11 3.27Q42.64 3.42 43.11 3.75L43.11 3.75L43.11 3.75Q43.57 4.07 43.86 4.59L43.86 4.59L43.86 4.59Q44.16 5.11 44.14 5.85L44.14 5.85L44.14 10.50L42.77 10.50L42.77 10.50Q42.77 10.50 42.73 10.33L42.73 10.33L42.73 10.33Q42.69 10.16 42.64 9.95L42.64 9.95L42.64 9.95Q42.59 9.74 42.55 9.58L42.55 9.58L42.55 9.58Q42.50 9.42 42.50 9.44L42.50 9.44L42.50 9.44Q42.31 9.79 41.99 10.05L41.99 10.05L41.99 10.05Q41.71 10.29 41.27 10.47L41.27 10.47L41.27 10.47Q40.82 10.65 40.18 10.65L40.18 10.65L40.18 10.65Q39.73 10.65 39.30 10.52L39.30 10.52L39.30 10.52Q38.86 10.39 38.52 10.13L38.52 10.13L38.52 10.13Q38.18 9.87 37.96 9.48L37.96 9.48L37.96 9.48Q37.74 9.09 37.73 8.57L37.73 8.57L37.73 8.57Q37.70 8.02 37.88 7.59L37.88 7.59L37.88 7.59Q38.05 7.17 38.38 6.86L38.38 6.86L38.38 6.86Q38.71 6.55 39.17 6.36L39.17 6.36L39.17 6.36Q39.63 6.17 40.18 6.10L40.18 6.10L40.18 6.10Q40.70 6.03 41.31 6.03L41.31 6.03L41.31 6.03Q41.93 6.03 42.42 6.06L42.42 6.06L42.42 5.84L42.42 5.84Q42.42 5.24 42.15 4.93L42.15 4.93L42.15 4.93Q41.89 4.63 41.49 4.54L41.49 4.54L41.49 4.54Q41.09 4.45 40.61 4.52L40.61 4.52L40.61 4.52Q40.14 4.59 39.70 4.72L39.70 4.72L39.70 4.72Q39.27 4.86 38.94 5.00L38.94 5.00L38.94 5.00Q38.61 5.15 38.53 5.22L38.53 5.22L38.53 3.81L38.53 3.81Q38.54 3.79 38.78 3.69L38.78 3.69L38.78 3.69Q39.02 3.58 39.38 3.46L39.38 3.46L39.38 3.46Q39.75 3.33 40.20 3.23L40.20 3.23L40.20 3.23Q40.66 3.12 41.12 3.12ZM42.01 8.68L42.01 8.68L42.01 8.68Q42.25 8.37 42.33 7.99L42.33 7.99L42.33 7.99Q42.41 7.62 42.41 7.20L42.41 7.20L41.59 7.20L41.59 7.20Q41.27 7.20 40.91 7.24L40.91 7.24L40.91 7.24Q40.54 7.28 40.24 7.41L40.24 7.41L40.24 7.41Q39.93 7.53 39.72 7.78L39.72 7.78L39.72 7.78Q39.51 8.02 39.51 8.44L39.51 8.44L39.51 8.44Q39.51 8.90 39.85 9.11L39.85 9.11L39.85 9.11Q40.19 9.32 40.70 9.32L40.70 9.32L40.70 9.32Q41.13 9.32 41.46 9.15L41.46 9.15L41.46 9.15Q41.79 8.97 42.01 8.68ZM54.15 3.12L54.15 3.12L54.15 3.12Q54.91 3.12 55.36 3.39L55.36 3.39L55.36 3.39Q55.82 3.65 56.06 4.09L56.06 4.09L56.06 4.09Q56.29 4.52 56.37 5.08L56.37 5.08L56.37 5.08Q56.45 5.64 56.45 6.24L56.45 6.24L56.45 10.50L54.57 10.50L54.57 10.49L54.56 6.19L54.56 6.19Q54.56 5.84 54.52 5.54L54.52 5.54L54.52 5.54Q54.47 5.25 54.36 5.04L54.36 5.04L54.36 5.04Q54.24 4.83 54.03 4.71L54.03 4.71L54.03 4.71Q53.82 4.59 53.49 4.59L53.49 4.59L53.49 4.59Q53.07 4.59 52.79 4.79L52.79 4.79L52.79 4.79Q52.51 4.98 52.36 5.29L52.36 5.29L52.36 5.29Q52.21 5.59 52.14 5.94L52.14 5.94L52.14 5.94Q52.08 6.29 52.08 6.59L52.08 6.59L52.08 10.50L50.23 10.50L50.23 10.49L50.22 10.49L50.22 6.19L50.22 6.19Q50.22 5.84 50.17 5.54L50.17 5.54L50.17 5.54Q50.12 5.25 49.99 5.03L49.99 5.03L49.99 5.03Q49.87 4.82 49.64 4.70L49.64 4.70L49.64 4.70Q49.42 4.58 49.07 4.58L49.07 4.58L49.07 4.58Q48.68 4.58 48.43 4.77L48.43 4.77L48.43 4.77Q48.17 4.97 48.02 5.27L48.02 5.27L48.02 5.27Q47.87 5.57 47.80 5.93L47.80 5.93L47.80 5.93Q47.74 6.29 47.74 6.59L47.74 6.59L47.74 10.50L45.86 10.50L45.86 3.29L47.28 3.29L47.59 4.40L47.59 4.40Q47.59 4.40 47.71 4.20L47.71 4.20L47.71 4.20Q47.84 4.00 48.09 3.77L48.09 3.77L48.09 3.77Q48.34 3.53 48.73 3.33L48.73 3.33L48.73 3.33Q49.11 3.12 49.64 3.12L49.64 3.12L49.64 3.12Q50.34 3.12 50.78 3.32L50.78 3.32L50.78 3.32Q51.21 3.51 51.46 3.75L51.46 3.75L51.46 3.75Q51.76 4.03 51.90 4.38L51.90 4.38L51.90 4.38Q51.93 4.34 52.05 4.14L52.05 4.14L52.05 4.14Q52.18 3.95 52.44 3.72L52.44 3.72L52.44 3.72Q52.71 3.49 53.13 3.30L53.13 3.30L53.13 3.30Q53.55 3.12 54.15 3.12ZM62.47 10.65L62.47 10.65L62.47 10.65Q61.92 10.65 61.52 10.49L61.52 10.49L61.52 10.49Q61.11 10.32 60.83 10.11L60.83 10.11L60.83 10.11Q60.51 9.87 60.27 9.56L60.27 9.56L60.27 12.22L58.39 12.22L58.39 3.29L59.85 3.29L60.21 4.24L60.21 4.24Q60.42 3.93 60.75 3.68L60.75 3.68L60.75 3.68Q61.03 3.47 61.45 3.30L61.45 3.30L61.45 3.30Q61.87 3.12 62.47 3.12L62.47 3.12L62.47 3.12Q63.29 3.12 63.87 3.42L63.87 3.42L63.87 3.42Q64.44 3.72 64.80 4.23L64.80 4.23L64.80 4.23Q65.16 4.73 65.32 5.41L65.32 5.41L65.32 5.41Q65.48 6.09 65.48 6.85L65.48 6.85L65.48 6.85Q65.48 7.60 65.32 8.29L65.32 8.29L65.32 8.29Q65.16 8.99 64.80 9.51L64.80 9.51L64.80 9.51Q64.44 10.04 63.87 10.35L63.87 10.35L63.87 10.35Q63.29 10.65 62.47 10.65ZM61.88 4.59L61.88 4.59L61.88 4.59Q61.21 4.59 60.74 5.14L60.74 5.14L60.74 5.14Q60.27 5.68 60.27 6.85L60.27 6.85L60.27 6.85Q60.27 7.99 60.74 8.60L60.74 8.60L60.74 8.60Q61.21 9.20 61.88 9.20L61.88 9.20L61.88 9.20Q62.22 9.20 62.51 9.04L62.51 9.04L62.51 9.04Q62.80 8.89 63.02 8.60L63.02 8.60L63.02 8.60Q63.24 8.30 63.37 7.86L63.37 7.86L63.37 7.86Q63.50 7.42 63.50 6.85L63.50 6.85L63.50 6.85Q63.50 6.27 63.37 5.84L63.37 5.84L63.37 5.84Q63.24 5.42 63.02 5.14L63.02 5.14L63.02 5.14Q62.80 4.86 62.51 4.72L62.51 4.72L62.51 4.72Q62.22 4.59 61.88 4.59ZM69.50 10.65L69.50 10.65L69.50 10.65Q68.84 10.65 68.36 10.49L68.36 10.49L68.36 10.49Q67.87 10.32 67.55 9.93L67.55 9.93L67.55 9.93Q67.23 9.55 67.07 8.94L67.07 8.94L67.07 8.94Q66.91 8.33 66.91 7.45L66.91 7.45L66.91 3.29L68.78 3.29L68.78 7.20L68.78 7.20Q68.78 8.23 69.06 8.71L69.06 8.71L69.06 8.71Q69.34 9.20 70.03 9.20L70.03 9.20L70.03 9.20Q70.85 9.20 71.25 8.52L71.25 8.52L71.25 8.52Q71.65 7.84 71.65 6.72L71.65 6.72L71.65 3.29L73.53 3.29L73.53 10.50L72.10 10.50L71.72 9.51L71.72 9.51Q71.72 9.51 71.58 9.68L71.58 9.68L71.58 9.68Q71.44 9.86 71.16 10.07L71.16 10.07L71.16 10.07Q70.88 10.29 70.47 10.47L70.47 10.47L70.47 10.47Q70.06 10.65 69.50 10.65ZM80.26 3.98L79.63 5.39L79.63 5.39Q79.16 5.03 78.60 4.84L78.60 4.84L78.60 4.84Q78.04 4.66 77.66 4.66L77.66 4.66L77.66 4.66Q77.29 4.66 77.08 4.79L77.08 4.79L77.08 4.79Q76.87 4.91 76.87 5.24L76.87 5.24L76.87 5.24Q76.87 5.52 77.14 5.68L77.14 5.68L77.14 5.68Q77.41 5.85 77.80 6.00L77.80 6.00L77.80 6.00Q78.19 6.15 78.65 6.31L78.65 6.31L78.65 6.31Q79.11 6.47 79.51 6.73L79.51 6.73L79.51 6.73Q79.90 6.99 80.16 7.38L80.16 7.38L80.16 7.38Q80.43 7.78 80.43 8.40L80.43 8.40L80.43 8.40Q80.43 8.99 80.21 9.41L80.21 9.41L80.21 9.41Q80.00 9.84 79.64 10.12L79.64 10.12L79.64 10.12Q79.28 10.39 78.82 10.52L78.82 10.52L78.82 10.52Q78.36 10.65 77.87 10.65L77.87 10.65L77.87 10.65Q77.52 10.65 77.12 10.58L77.12 10.58L77.12 10.58Q76.72 10.50 76.33 10.34L76.33 10.34L76.33 10.34Q75.95 10.18 75.59 9.95L75.59 9.95L75.59 9.95Q75.24 9.72 74.97 9.42L74.97 9.42L75.59 8.05L75.59 8.05Q76.08 8.58 76.64 8.86L76.64 8.86L76.64 8.86Q77.20 9.13 77.66 9.13L77.66 9.13L77.66 9.13Q78.05 9.13 78.41 8.99L78.41 8.99L78.41 8.99Q78.78 8.85 78.79 8.51L78.79 8.51L78.79 8.51Q78.81 8.19 78.55 7.99L78.55 7.99L78.55 7.99Q78.29 7.78 77.90 7.63L77.90 7.63L77.90 7.63Q77.50 7.48 77.04 7.31L77.04 7.31L77.04 7.31Q76.58 7.15 76.19 6.90L76.19 6.90L76.19 6.90Q75.80 6.65 75.53 6.27L75.53 6.27L75.53 6.27Q75.26 5.89 75.28 5.29L75.28 5.29L75.28 5.29Q75.28 4.72 75.48 4.30L75.48 4.30L75.48 4.30Q75.68 3.89 76.02 3.63L76.02 3.63L76.02 3.63Q76.36 3.37 76.80 3.25L76.80 3.25L76.80 3.25Q77.24 3.12 77.71 3.12L77.71 3.12L77.71 3.12Q77.99 3.12 78.33 3.18L78.33 3.18L78.33 3.18Q78.67 3.23 79.01 3.35L79.01 3.35L79.01 3.35Q79.35 3.46 79.68 3.61L79.68 3.61L79.68 3.61Q80.01 3.77 80.26 3.98L80.26 3.98Z"></path></g><defs data-v-fde0c5aa=""><!----></defs><g data-v-fde0c5aa="" id="89c60388-a5b4-45ce-9314-eddaed6cb5d2" stroke="none" fill="#010033" transform="matrix(0.6639405765608307,0,0,0.6639405765608307,21.000698506037224,116.80226802215313)"><path d="M68.998 25.296c-4.913.879-6.646-6.211-6.668-7.476-.022-1.265-.57-4.489-.57-4.489l-1.255.584s-2.016-6.784-11.364-6.621c-9.347.163-16.814 11.4-16.553 18.356.262 6.955 4.667 13.698 4.723 16.86l-5.641-5.034s-3.119 6.592-3.053 10.387c.066 3.795 1.617 8.057 2.182 8.258.87-2.546 2.878-2.956 4.747-3.27-3.048 2.584-6.71 15.677-6.584 22.916s4.094 17.106 13.512 16.942c9.418-.164 11.548-6.997 11.494-10.136-.055-3.139-2.45-6.144-5.59-6.089-3.139.055-3.753 2.502-3.753 2.502s1.44-.728 3.08-.757c1.64-.029 3.138 2.57 3.156 3.624.018 1.054 1.025 6.38-7.198 6.523-8.223.143-8.119-8.717-8.119-8.717-.362-20.803 18.431-12.786 17.955-40.103-.199-11.386-9.677-14.736-9.748-18.765-.024-1.359.508-3.149 1.773-3.171 1.265-.022 2.03 3.55 2.03 3.55s2.164.103 2.743.093c3.537-.062 12.962 4.376 16.636 9.295l3.64-3.602s2.63-2.413-1.575-1.66zm-10.415-6.879a1.167 1.167 0 1 1 0-2.334 1.167 1.167 0 0 1 0 2.334z"></path></g><defs data-v-fde0c5aa=""><!----></defs><g data-v-fde0c5aa="" id="d388bf8c-6201-46ee-a4c7-f40d61533967" fill="#ffffff" transform="matrix(0.637824914402247,0,0,0.637824914402247,81.00080356159415,161.66771126634916)"><path d="M0.62 8.90L0.62 8.90L0.62 8.90Q0.62 7.38 1.20 6.16L1.20 6.16L1.20 6.16Q1.79 4.94 3.02 4.19L3.02 4.19L3.02 4.19Q4.24 3.44 5.92 3.44L5.92 3.44L5.92 3.44Q6.78 3.44 7.64 3.70L7.64 3.70L7.64 3.70Q8.51 3.95 9.03 4.20L9.03 4.20L9.55 4.47L9.55 4.47Q9.59 4.47 9.69 4.40L9.69 4.40L9.69 4.40Q9.79 4.33 9.84 4.33L9.84 4.33L9.84 4.33Q9.91 4.33 9.98 4.38L9.98 4.38L9.98 4.38Q10.05 4.44 10.05 4.55L10.05 4.55L10.05 4.55Q10.07 4.96 10.12 5.41L10.12 5.41L10.12 5.41Q10.16 5.87 10.21 6.16L10.21 6.16L10.21 6.16Q10.25 6.45 10.25 6.51L10.25 6.51L10.25 6.51Q10.25 6.76 10.08 6.76L10.08 6.76L10.08 6.76Q9.95 6.76 9.84 6.57L9.84 6.57L9.84 6.57Q8.48 4.02 5.92 4.02L5.92 4.02L5.92 4.02Q4.17 4.02 3.05 5.14L3.05 5.14L3.05 5.14Q1.93 6.26 1.93 8.06L1.93 8.06L1.93 8.06Q1.93 9.06 2.19 9.93L2.19 9.93L2.19 9.93Q2.45 10.79 2.98 11.51L2.98 11.51L2.98 11.51Q3.50 12.24 4.42 12.66L4.42 12.66L4.42 12.66Q5.35 13.08 6.58 13.08L6.58 13.08L6.58 13.08Q8.60 13.08 9.97 10.98L9.97 10.98L9.97 10.98Q10.02 10.88 10.18 10.88L10.18 10.88L10.18 10.88Q10.30 10.88 10.30 11.07L10.30 11.07L10.30 11.07Q10.30 11.23 10.26 11.49L10.26 11.49L10.26 11.49Q10.21 11.75 10.14 12.06L10.14 12.06L10.14 12.06Q10.07 12.38 10.05 12.45L10.05 12.45L10.05 12.45Q10.02 12.60 9.83 12.70L9.83 12.70L9.83 12.70Q9.07 13.06 8.64 13.24L8.64 13.24L8.64 13.24Q8.22 13.43 7.56 13.57L7.56 13.57L7.56 13.57Q6.90 13.72 6.22 13.72L6.22 13.72L6.22 13.72Q5.00 13.72 4.02 13.43L4.02 13.43L4.02 13.43Q3.04 13.13 2.42 12.66L2.42 12.66L2.42 12.66Q1.79 12.18 1.37 11.54L1.37 11.54L1.37 11.54Q0.95 10.91 0.78 10.25L0.78 10.25L0.78 10.25Q0.62 9.60 0.62 8.90ZM18.58 3.70L18.58 3.70L18.58 3.70Q18.58 3.47 18.98 3.47L18.98 3.47L21.31 3.47L21.31 3.47Q21.63 3.47 22.05 3.45L22.05 3.45L22.05 3.45Q22.47 3.43 22.71 3.43L22.71 3.43L22.71 3.43Q23.97 3.43 24.86 4.07L24.86 4.07L24.86 4.07Q25.76 4.70 25.76 5.78L25.76 5.78L25.76 5.78Q25.76 6.50 25.49 7.03L25.49 7.03L25.49 7.03Q25.21 7.57 24.89 7.81L24.89 7.81L24.89 7.81Q24.56 8.05 24.28 8.22L24.28 8.22L24.28 8.22Q24.01 8.40 24.01 8.46L24.01 8.46L24.01 8.46Q24.01 8.62 25.19 10.27L25.19 10.27L25.19 10.27Q26.36 11.91 26.80 12.38L26.80 12.38L26.80 12.38Q27.33 13.03 28.08 13.03L28.08 13.03L28.08 13.03Q28.28 13.03 28.28 13.20L28.28 13.20L28.28 13.20Q28.28 13.41 28.11 13.48L28.11 13.48L28.11 13.48Q27.94 13.55 27.24 13.55L27.24 13.55L27.24 13.55Q26.59 13.55 26.04 13.23L26.04 13.23L26.04 13.23Q25.34 12.82 23.67 10.09L23.67 10.09L23.67 10.09Q23.58 9.94 23.53 9.87L23.53 9.87L23.53 9.87Q22.86 8.78 22.50 8.78L22.50 8.78L22.20 8.78L21.35 8.78L21.35 8.78Q21.18 8.78 21.15 8.92L21.15 8.92L21.15 8.92Q21.11 9.06 21.11 9.77L21.11 9.77L21.11 9.77Q21.11 10.44 21.11 10.88L21.11 10.88L21.11 10.88Q21.11 11.31 21.12 11.43L21.12 11.43L21.12 11.43Q21.13 11.55 21.13 11.63L21.13 11.63L21.13 11.63Q21.13 11.70 21.13 11.75L21.13 11.75L21.13 11.75Q21.13 12.32 21.39 12.63L21.39 12.63L21.39 12.63Q21.66 12.95 21.99 13.00L21.99 13.00L21.99 13.00Q22.32 13.05 22.58 13.11L22.58 13.11L22.58 13.11Q22.85 13.17 22.85 13.31L22.85 13.31L22.85 13.31Q22.85 13.54 22.60 13.54L22.60 13.54L22.60 13.54Q22.58 13.54 21.63 13.49L21.63 13.49L21.63 13.49Q20.68 13.44 20.59 13.44L20.59 13.44L20.59 13.44Q20.19 13.44 19.63 13.47L19.63 13.47L19.63 13.47Q19.07 13.50 19.05 13.50L19.05 13.50L19.05 13.50Q18.76 13.50 18.76 13.27L18.76 13.27L18.76 13.27Q18.76 13.12 18.94 13.05L18.94 13.05L18.94 13.05Q19.12 12.99 19.35 12.96L19.35 12.96L19.35 12.96Q19.57 12.94 19.75 12.66L19.75 12.66L19.75 12.66Q19.94 12.38 19.94 11.86L19.94 11.86L19.94 11.86Q19.94 11.49 19.94 9.90L19.94 9.90L19.94 9.90Q19.95 8.30 19.95 7.45L19.95 7.45L19.95 7.45Q19.95 6.58 19.94 5.86L19.94 5.86L19.94 5.86Q19.94 5.14 19.94 5.08L19.94 5.08L19.94 5.08Q19.94 4.56 19.73 4.29L19.73 4.29L19.73 4.29Q19.52 4.02 19.26 3.98L19.26 3.98L19.26 3.98Q19.00 3.95 18.79 3.89L18.79 3.89L18.79 3.89Q18.58 3.84 18.58 3.70ZM21.11 5.54L21.11 5.94L21.11 5.94Q21.11 7.38 21.13 7.72L21.13 7.72L21.13 7.72Q21.14 8.06 21.22 8.12L21.22 8.12L21.22 8.12Q21.43 8.25 21.83 8.25L21.83 8.25L21.97 8.25L22.37 8.25L22.37 8.25Q23.56 8.25 24.07 7.70L24.07 7.70L24.07 7.70Q24.58 7.15 24.58 6.30L24.58 6.30L24.58 6.30Q24.58 5.43 23.91 4.72L23.91 4.72L23.91 4.72Q23.23 4.00 21.85 4.00L21.85 4.00L21.85 4.00Q21.34 4.00 21.22 4.28L21.22 4.28L21.22 4.28Q21.11 4.55 21.11 5.54L21.11 5.54ZM35.63 3.65L35.63 3.65L35.63 3.65Q35.63 3.46 36.02 3.46L36.02 3.46L36.02 3.46Q36.08 3.46 36.20 3.47L36.20 3.47L36.20 3.47Q36.33 3.49 36.40 3.49L36.40 3.49L36.40 3.49Q36.44 3.49 37.72 3.52L37.72 3.52L37.72 3.52Q38.99 3.56 39.82 3.56L39.82 3.56L39.82 3.56Q40.11 3.56 41.27 3.53L41.27 3.53L41.27 3.53Q42.42 3.50 42.62 3.50L42.62 3.50L42.62 3.50Q42.88 3.50 42.88 3.82L42.88 3.82L42.88 3.82Q42.88 3.91 42.80 4.38L42.80 4.38L42.80 4.38Q42.71 4.84 42.71 5.25L42.71 5.25L42.71 5.25Q42.71 5.38 42.64 5.47L42.64 5.47L42.64 5.47Q42.57 5.56 42.49 5.56L42.49 5.56L42.49 5.56Q42.28 5.56 42.28 5.26L42.28 5.26L42.28 5.26Q42.28 4.89 42.04 4.58L42.04 4.58L42.04 4.58Q41.80 4.27 41.45 4.26L41.45 4.26L41.45 4.26Q40.19 4.16 39.52 4.16L39.52 4.16L39.16 4.16L39.16 4.16Q38.43 4.16 38.31 4.26L38.31 4.26L38.31 4.26Q38.19 4.37 38.16 5.01L38.16 5.01L38.16 5.01Q38.11 6.02 38.11 7.35L38.11 7.35L38.11 7.35Q38.11 8.05 38.37 8.06L38.37 8.06L38.72 8.06L39.31 8.06L39.75 8.06L39.75 8.06Q40.59 8.06 40.87 8.01L40.87 8.01L40.87 8.01Q41.15 7.95 41.37 7.80L41.37 7.80L41.37 7.80Q41.64 7.62 41.69 7.28L41.69 7.28L41.69 7.28Q41.73 7.04 41.89 7.04L41.89 7.04L41.89 7.04Q42.01 7.04 42.04 7.08L42.04 7.08L42.04 7.08Q42.07 7.13 42.07 7.27L42.07 7.27L42.07 7.27Q42.07 7.36 42.01 7.91L42.01 7.91L42.01 7.91Q41.96 8.46 41.96 8.74L41.96 8.74L41.96 8.74Q41.96 9.00 41.98 9.24L41.98 9.24L41.98 9.24Q42 9.48 42 9.59L42 9.59L42 9.59Q42 9.94 41.90 9.94L41.90 9.94L41.90 9.94Q41.69 9.94 41.59 9.60L41.59 9.60L41.59 9.60Q41.40 9.02 41.24 8.92L41.24 8.92L41.24 8.92Q40.95 8.72 39.90 8.72L39.90 8.72L39.90 8.72Q39.48 8.72 39.22 8.72L39.22 8.72L39.22 8.72Q38.96 8.72 38.89 8.71L38.89 8.71L38.89 8.71Q38.81 8.71 38.76 8.71L38.76 8.71L38.76 8.71Q38.71 8.71 38.67 8.71L38.67 8.71L38.67 8.71Q38.09 8.71 38.09 8.97L38.09 8.97L38.09 8.97Q38.09 9.38 38.08 9.99L38.08 9.99L38.08 9.99Q38.07 10.60 38.07 10.99L38.07 10.99L38.07 11.55L38.07 11.55Q38.07 12.56 38.40 12.66L38.40 12.66L38.40 12.66Q38.75 12.77 39.00 12.77L39.00 12.77L39.00 12.77Q40.05 12.77 40.84 12.67L40.84 12.67L40.84 12.67Q41.64 12.57 42.04 12.42L42.04 12.42L42.04 12.42Q42.43 12.28 42.70 12.10L42.70 12.10L42.70 12.10Q42.97 11.93 43.04 11.78L43.04 11.78L43.04 11.78Q43.12 11.63 43.20 11.54L43.20 11.54L43.20 11.54Q43.27 11.44 43.36 11.44L43.36 11.44L43.36 11.44Q43.53 11.44 43.53 11.68L43.53 11.68L43.53 11.68Q43.53 12.28 42.92 12.89L42.92 12.89L42.92 12.89Q42.32 13.51 41.87 13.51L41.87 13.51L41.87 13.51Q40.87 13.51 39.60 13.44L39.60 13.44L39.60 13.44Q38.33 13.37 38.02 13.37L38.02 13.37L38.02 13.37Q37.63 13.37 37.04 13.43L37.04 13.43L37.04 13.43Q36.46 13.50 36.12 13.50L36.12 13.50L36.12 13.50Q35.83 13.50 35.83 13.36L35.83 13.36L35.83 13.36Q35.83 13.23 35.83 13.19L35.83 13.19L35.83 13.19Q35.83 13.15 35.87 13.12L35.87 13.12L35.87 13.12Q35.91 13.09 35.96 13.08L35.96 13.08L35.96 13.08Q36.01 13.08 36.14 13.03L36.14 13.03L36.14 13.03Q36.27 12.99 36.43 12.92L36.43 12.92L36.43 12.92Q36.76 12.75 36.87 12.26L36.87 12.26L36.87 12.26Q36.97 11.77 36.97 10.21L36.97 10.21L36.97 8.47L36.97 8.47Q36.97 8.09 37.00 7.29L37.00 7.29L37.00 7.29Q37.02 6.50 37.02 6.05L37.02 6.05L37.02 6.05Q37.02 5.67 36.99 4.77L36.99 4.77L36.99 4.77Q36.97 4.37 36.64 4.14L36.64 4.14L36.64 4.14Q36.30 3.92 35.85 3.91L35.85 3.91L35.85 3.91Q35.63 3.91 35.63 3.65ZM51.09 13.33L51.09 13.33L51.09 13.33Q51.09 13.13 51.30 13.06L51.30 13.06L51.30 13.06Q51.74 12.89 52.08 12.31L52.08 12.31L52.08 12.31Q52.42 11.73 53.75 8.83L53.75 8.83L53.75 8.83Q55.12 5.87 56.17 3.63L56.17 3.63L56.17 3.63Q56.27 3.42 56.34 3.36L56.34 3.36L56.34 3.36Q56.42 3.30 56.59 3.30L56.59 3.30L56.59 3.30Q56.71 3.30 56.76 3.36L56.76 3.36L56.76 3.36Q56.80 3.42 56.94 3.82L56.94 3.82L56.94 3.82Q57.02 4.06 57.08 4.23L57.08 4.23L57.08 4.23Q57.15 4.40 57.29 4.77L57.29 4.77L57.29 4.77Q57.43 5.15 57.60 5.56L57.60 5.56L57.60 5.56Q58.04 6.66 59.14 9.22L59.14 9.22L59.14 9.22Q60.24 11.77 60.34 11.98L60.34 11.98L60.34 11.98Q60.58 12.46 60.87 12.71L60.87 12.71L60.87 12.71Q61.17 12.95 61.38 12.97L61.38 12.97L61.38 12.97Q61.60 12.99 61.75 13.04L61.75 13.04L61.75 13.04Q61.89 13.09 61.89 13.26L61.89 13.26L61.89 13.26Q61.89 13.47 61.52 13.47L61.52 13.47L61.52 13.47Q61.36 13.47 60.91 13.43L60.91 13.43L60.91 13.43Q60.47 13.38 60.26 13.38L60.26 13.38L60.26 13.38Q59.99 13.38 59.57 13.41L59.57 13.41L59.57 13.41Q59.15 13.44 58.95 13.44L58.95 13.44L58.95 13.44Q58.52 13.44 58.40 13.40L58.40 13.40L58.40 13.40Q58.28 13.37 58.28 13.24L58.28 13.24L58.28 13.24Q58.28 13.15 58.39 13.08L58.39 13.08L58.39 13.08Q58.51 13.02 58.63 13.00L58.63 13.00L58.63 13.00Q58.76 12.98 58.87 12.87L58.87 12.87L58.87 12.87Q58.98 12.77 58.98 12.59L58.98 12.59L58.98 12.59Q58.98 12.28 58.63 11.33L58.63 11.33L58.63 11.33Q58.28 10.37 58.04 9.93L58.04 9.93L58.04 9.93Q57.92 9.69 57.47 9.69L57.47 9.69L57.47 9.69Q57.40 9.69 56.85 9.70L56.85 9.70L56.85 9.70Q56.31 9.72 55.78 9.72L55.78 9.72L55.03 9.72L55.03 9.72Q54.40 9.72 54.24 9.79L54.24 9.79L54.24 9.79Q54.08 9.86 53.96 10.12L53.96 10.12L53.96 10.12Q53.87 10.30 53.68 10.70L53.68 10.70L53.68 10.70Q53.48 11.10 53.41 11.26L53.41 11.26L53.41 11.26Q53.34 11.41 53.23 11.65L53.23 11.65L53.23 11.65Q53.13 11.90 53.09 12.05L53.09 12.05L53.09 12.05Q53.06 12.19 53.06 12.31L53.06 12.31L53.06 12.31Q53.06 12.63 53.22 12.80L53.22 12.80L53.22 12.80Q53.38 12.96 53.58 12.98L53.58 12.98L53.58 12.98Q53.77 13.01 53.93 13.06L53.93 13.06L53.93 13.06Q54.10 13.12 54.10 13.26L54.10 13.26L54.10 13.26Q54.10 13.36 54.05 13.40L54.05 13.40L54.05 13.40Q54.01 13.45 53.86 13.45L53.86 13.45L53.86 13.45Q53.77 13.45 53.38 13.45L53.38 13.45L53.38 13.45Q52.98 13.44 52.70 13.44L52.70 13.44L52.70 13.44Q52.39 13.44 52.00 13.47L52.00 13.47L52.00 13.47Q51.62 13.50 51.49 13.50L51.49 13.50L51.49 13.50Q51.09 13.50 51.09 13.33ZM54.60 8.71L54.60 8.71L54.60 8.71Q54.60 8.89 54.73 8.93L54.73 8.93L54.73 8.93Q54.85 8.97 55.31 8.97L55.31 8.97L55.75 8.97L57.08 8.96L57.08 8.96Q57.62 8.96 57.62 8.74L57.62 8.74L57.62 8.74Q57.62 8.55 56.94 7.01L56.94 7.01L56.94 7.01Q56.25 5.46 56.07 5.46L56.07 5.46L56.07 5.46Q55.94 5.46 55.27 7.01L55.27 7.01L55.27 7.01Q54.60 8.55 54.60 8.71ZM69.45 3.77L69.45 3.77L69.45 3.77Q69.45 3.68 69.55 3.60L69.55 3.60L69.55 3.60Q69.65 3.53 69.80 3.53L69.80 3.53L69.80 3.53Q69.89 3.53 70.08 3.54L70.08 3.54L70.08 3.54Q70.28 3.54 70.34 3.54L70.34 3.54L70.34 3.54Q70.55 3.54 70.73 3.53L70.73 3.53L70.73 3.53Q70.91 3.51 71.02 3.51L71.02 3.51L71.02 3.51Q71.15 3.51 71.32 3.59L71.32 3.59L71.32 3.59Q71.48 3.67 71.51 3.75L71.51 3.75L71.51 3.75Q71.54 3.79 71.67 3.94L71.67 3.94L71.67 3.94Q71.79 4.09 72.00 4.33L72.00 4.33L72.00 4.33Q72.21 4.56 72.38 4.79L72.38 4.79L72.38 4.79Q74.28 7.27 77.48 10.77L77.48 10.77L77.48 10.77Q77.56 10.86 77.68 10.99L77.68 10.99L77.68 10.99Q77.80 11.12 77.85 11.18L77.85 11.18L77.85 11.18Q77.90 11.24 77.95 11.30L77.95 11.30L77.95 11.30Q78.01 11.35 78.04 11.38L78.04 11.38L78.04 11.38Q78.08 11.40 78.11 11.40L78.11 11.40L78.11 11.40Q78.25 11.40 78.25 10.53L78.25 10.53L78.25 8.89L78.25 8.89Q78.25 7.95 78.24 7.31L78.24 7.31L78.24 7.31Q78.23 6.66 78.23 6.38L78.23 6.38L78.23 6.38Q78.22 6.09 78.22 6.02L78.22 6.02L78.22 5.92L78.22 5.92Q78.22 5.45 78.16 5.11L78.16 5.11L78.16 5.11Q78.09 4.77 78.01 4.59L78.01 4.59L78.01 4.59Q77.92 4.41 77.76 4.28L77.76 4.28L77.76 4.28Q77.60 4.16 77.49 4.12L77.49 4.12L77.49 4.12Q77.38 4.09 77.17 4.05L77.17 4.05L77.17 4.05Q76.96 4.00 76.87 3.98L76.87 3.98L76.87 3.98Q76.59 3.89 76.59 3.74L76.59 3.74L76.59 3.74Q76.59 3.53 76.86 3.53L76.86 3.53L76.86 3.53Q76.94 3.53 77.53 3.54L77.53 3.54L77.53 3.54Q78.12 3.54 78.19 3.54L78.19 3.54L78.19 3.54Q78.53 3.54 78.94 3.53L78.94 3.53L78.94 3.53Q79.35 3.51 79.45 3.51L79.45 3.51L79.45 3.51Q79.69 3.51 79.78 3.56L79.78 3.56L79.78 3.56Q79.87 3.61 79.87 3.75L79.87 3.75L79.87 3.75Q79.87 3.81 79.79 3.86L79.79 3.86L79.79 3.86Q79.72 3.91 79.63 3.94L79.63 3.94L79.63 3.94Q79.55 3.98 79.46 4.00L79.46 4.00L79.38 4.03L79.38 4.03Q78.92 4.28 78.92 5.61L78.92 5.61L78.92 6.15L78.92 6.15Q78.92 7.21 78.84 9.83L78.84 9.83L78.84 9.83Q78.76 12.46 78.76 13.08L78.76 13.08L78.76 13.36L78.76 13.36Q78.76 13.68 78.57 13.68L78.57 13.68L78.57 13.68Q78.44 13.68 78.34 13.58L78.34 13.58L78.34 13.58Q73.70 8.19 72.79 7.17L72.79 7.17L72.79 7.17Q71.89 6.16 71.79 6.16L71.79 6.16L71.79 6.16Q71.65 6.16 71.65 7.11L71.65 7.11L71.65 7.11Q71.65 8.44 71.60 9.97L71.60 9.97L71.60 9.97Q71.54 11.51 71.54 11.65L71.54 11.65L71.54 11.65Q71.54 12.28 71.76 12.61L71.76 12.61L71.76 12.61Q71.97 12.94 72.23 12.98L72.23 12.98L72.23 12.98Q72.48 13.02 72.70 13.07L72.70 13.07L72.70 13.07Q72.91 13.12 72.91 13.26L72.91 13.26L72.91 13.26Q72.91 13.41 72.86 13.45L72.86 13.45L72.86 13.45Q72.81 13.50 72.69 13.50L72.69 13.50L72.69 13.50Q72.59 13.50 72.25 13.48L72.25 13.48L72.25 13.48Q71.90 13.47 71.19 13.47L71.19 13.47L71.19 13.47Q71.06 13.47 70.67 13.48L70.67 13.48L70.67 13.48Q70.28 13.50 70 13.50L70 13.50L70 13.50Q69.69 13.50 69.69 13.27L69.69 13.27L69.69 13.27Q69.69 13.15 69.87 13.11L69.87 13.11L69.87 13.11Q70.06 13.08 70.32 12.89L70.32 12.89L70.32 12.89Q70.59 12.71 70.73 12.21L70.73 12.21L70.73 12.21Q70.81 11.89 70.94 9.60L70.94 9.60L70.94 9.60Q71.06 7.32 71.06 6.45L71.06 6.45L71.06 6.45Q71.06 5.25 70.73 4.65L70.73 4.65L70.73 4.65Q70.39 4.06 69.64 3.98L69.64 3.98L69.64 3.98Q69.45 3.96 69.45 3.77ZM87.63 3.64L87.63 3.64L87.63 3.64Q87.63 3.51 87.75 3.49L87.75 3.49L87.75 3.49Q87.86 3.47 88.34 3.47L88.34 3.47L89.56 3.47L89.56 3.47Q89.91 3.47 90.85 3.44L90.85 3.44L90.85 3.44Q91.78 3.42 92.29 3.42L92.29 3.42L92.29 3.42Q93.25 3.42 94.22 3.71L94.22 3.71L94.22 3.71Q95.19 4.00 96.00 4.56L96.00 4.56L96.00 4.56Q96.81 5.11 97.31 6.00L97.31 6.00L97.31 6.00Q97.82 6.89 97.82 7.98L97.82 7.98L97.82 7.98Q97.82 8.96 97.69 9.68L97.69 9.68L97.69 9.68Q97.55 10.40 97.24 10.93L97.24 10.93L97.24 10.93Q96.94 11.45 96.63 11.78L96.63 11.78L96.63 11.78Q96.32 12.11 95.79 12.56L95.79 12.56L95.79 12.56Q95.37 12.89 94.57 13.19L94.57 13.19L94.57 13.19Q93.77 13.48 92.93 13.48L92.93 13.48L92.93 13.48Q92.85 13.48 91.50 13.45L91.50 13.45L91.50 13.45Q90.16 13.41 89.57 13.41L89.57 13.41L89.57 13.41Q89.08 13.41 88.66 13.45L88.66 13.45L88.66 13.45Q88.24 13.48 88.17 13.48L88.17 13.48L88.17 13.48Q87.84 13.48 87.84 13.30L87.84 13.30L87.84 13.30Q87.84 13.19 87.89 13.14L87.89 13.14L87.89 13.14Q87.93 13.09 88.09 13.05L88.09 13.05L88.09 13.05Q88.26 13.01 88.33 12.98L88.33 12.98L88.33 12.98Q88.55 12.88 88.74 12.61L88.74 12.61L88.74 12.61Q88.93 12.33 88.93 12.07L88.93 12.07L88.93 12.07Q88.93 11.28 88.94 10.07L88.94 10.07L88.94 10.07Q88.94 8.85 88.94 8.27L88.94 8.27L88.94 8.27Q88.94 7.77 88.94 6.70L88.94 6.70L88.94 6.70Q88.93 5.63 88.93 4.72L88.93 4.72L88.93 4.72Q88.93 4.48 88.70 4.23L88.70 4.23L88.70 4.23Q88.47 3.99 88.19 3.98L88.19 3.98L88.19 3.98Q87.99 3.96 87.90 3.95L87.90 3.95L87.90 3.95Q87.81 3.93 87.72 3.86L87.72 3.86L87.72 3.86Q87.63 3.78 87.63 3.64ZM90.10 11.47L90.10 11.47L90.10 11.47Q90.10 11.73 90.11 11.90L90.11 11.90L90.11 11.90Q90.12 12.07 90.17 12.21L90.17 12.21L90.17 12.21Q90.22 12.35 90.24 12.40L90.24 12.40L90.24 12.40Q90.27 12.46 90.41 12.53L90.41 12.53L90.41 12.53Q90.55 12.60 90.63 12.62L90.63 12.62L90.63 12.62Q90.71 12.64 90.96 12.71L90.96 12.71L90.96 12.71Q91.21 12.78 91.38 12.82L91.38 12.82L91.38 12.82Q91.87 12.96 92.40 12.96L92.40 12.96L92.68 12.96L92.68 12.96Q93.63 12.96 94.30 12.69L94.30 12.69L94.30 12.69Q94.98 12.42 95.59 11.83L95.59 11.83L95.59 11.83Q96.63 10.84 96.63 8.61L96.63 8.61L96.63 8.61Q96.63 7.49 96.19 6.58L96.19 6.58L96.19 6.58Q95.75 5.67 95.03 5.13L95.03 5.13L95.03 5.13Q94.32 4.59 93.49 4.30L93.49 4.30L93.49 4.30Q92.67 4.02 91.83 4.02L91.83 4.02L91.83 4.02Q91.45 4.02 91.27 4.02L91.27 4.02L91.27 4.02Q91.10 4.02 90.87 4.05L90.87 4.05L90.87 4.05Q90.64 4.09 90.56 4.11L90.56 4.11L90.56 4.11Q90.48 4.13 90.37 4.25L90.37 4.25L90.37 4.25Q90.26 4.37 90.24 4.45L90.24 4.45L90.24 4.45Q90.22 4.54 90.18 4.78L90.18 4.78L90.18 4.78Q90.15 5.03 90.15 5.21L90.15 5.21L90.15 5.21Q90.15 5.39 90.15 5.80L90.15 5.80L90.15 5.80Q90.15 6.10 90.13 7.24L90.13 7.24L90.13 7.24Q90.12 8.39 90.12 8.48L90.12 8.48L90.12 8.48Q90.12 9.32 90.11 10.30L90.11 10.30L90.11 10.30Q90.10 11.28 90.10 11.47ZM106.05 8.69L106.05 8.69L106.05 8.69Q106.05 6.34 107.46 4.84L107.46 4.84L107.46 4.84Q108.88 3.33 111.47 3.33L111.47 3.33L111.47 3.33Q112.67 3.33 113.64 3.68L113.64 3.68L113.64 3.68Q114.60 4.03 115.16 4.54L115.16 4.54L115.16 4.54Q115.72 5.05 116.10 5.71L116.10 5.71L116.10 5.71Q116.48 6.37 116.62 6.92L116.62 6.92L116.62 6.92Q116.76 7.48 116.76 7.95L116.76 7.95L116.76 7.95Q116.76 9.86 116.02 11.16L116.02 11.16L116.02 11.16Q115.28 12.47 114.06 13.07L114.06 13.07L114.06 13.07Q112.85 13.66 111.27 13.66L111.27 13.66L111.27 13.66Q109.61 13.66 108.39 12.94L108.39 12.94L108.39 12.94Q107.18 12.21 106.62 11.10L106.62 11.10L106.62 11.10Q106.05 10.00 106.05 8.69ZM107.28 7.98L107.28 7.98L107.28 7.98Q107.28 8.54 107.44 9.19L107.44 9.19L107.44 9.19Q107.59 9.84 107.94 10.54L107.94 10.54L107.94 10.54Q108.29 11.23 108.79 11.78L108.79 11.78L108.79 11.78Q109.28 12.33 110.05 12.69L110.05 12.69L110.05 12.69Q110.81 13.05 111.72 13.05L111.72 13.05L111.72 13.05Q112.20 13.05 112.72 12.90L112.72 12.90L112.72 12.90Q113.25 12.75 113.76 12.45L113.76 12.45L113.76 12.45Q114.28 12.14 114.69 11.70L114.69 11.70L114.69 11.70Q115.09 11.26 115.35 10.62L115.35 10.62L115.35 10.62Q115.61 9.98 115.61 9.24L115.61 9.24L115.61 9.24Q115.61 6.71 114.28 5.30L114.28 5.30L114.28 5.30Q112.95 3.89 110.99 3.89L110.99 3.89L110.99 3.89Q109.45 3.89 108.37 4.93L108.37 4.93L108.37 4.93Q107.28 5.96 107.28 7.98ZM134.64 3.70L134.64 3.70L134.64 3.70Q134.64 3.47 135.04 3.47L135.04 3.47L137.37 3.47L137.37 3.47Q137.69 3.47 138.11 3.45L138.11 3.45L138.11 3.45Q138.53 3.43 138.77 3.43L138.77 3.43L138.77 3.43Q140.03 3.43 140.92 4.07L140.92 4.07L140.92 4.07Q141.82 4.70 141.82 5.78L141.82 5.78L141.82 5.78Q141.82 6.50 141.55 7.03L141.55 7.03L141.55 7.03Q141.27 7.57 140.94 7.81L140.94 7.81L140.94 7.81Q140.62 8.05 140.34 8.22L140.34 8.22L140.34 8.22Q140.07 8.40 140.07 8.46L140.07 8.46L140.07 8.46Q140.07 8.62 141.25 10.27L141.25 10.27L141.25 10.27Q142.42 11.91 142.86 12.38L142.86 12.38L142.86 12.38Q143.39 13.03 144.14 13.03L144.14 13.03L144.14 13.03Q144.34 13.03 144.34 13.20L144.34 13.20L144.34 13.20Q144.34 13.41 144.17 13.48L144.17 13.48L144.17 13.48Q144.00 13.55 143.30 13.55L143.30 13.55L143.30 13.55Q142.65 13.55 142.10 13.23L142.10 13.23L142.10 13.23Q141.40 12.82 139.73 10.09L139.73 10.09L139.73 10.09Q139.64 9.94 139.59 9.87L139.59 9.87L139.59 9.87Q138.92 8.78 138.56 8.78L138.56 8.78L138.26 8.78L137.41 8.78L137.41 8.78Q137.24 8.78 137.21 8.92L137.21 8.92L137.21 8.92Q137.17 9.06 137.17 9.77L137.17 9.77L137.17 9.77Q137.17 10.44 137.17 10.88L137.17 10.88L137.17 10.88Q137.17 11.31 137.18 11.43L137.18 11.43L137.18 11.43Q137.19 11.55 137.19 11.63L137.19 11.63L137.19 11.63Q137.19 11.70 137.19 11.75L137.19 11.75L137.19 11.75Q137.19 12.32 137.45 12.63L137.45 12.63L137.45 12.63Q137.72 12.95 138.05 13.00L138.05 13.00L138.05 13.00Q138.38 13.05 138.64 13.11L138.64 13.11L138.64 13.11Q138.91 13.17 138.91 13.31L138.91 13.31L138.91 13.31Q138.91 13.54 138.66 13.54L138.66 13.54L138.66 13.54Q138.64 13.54 137.69 13.49L137.69 13.49L137.69 13.49Q136.74 13.44 136.65 13.44L136.65 13.44L136.65 13.44Q136.25 13.44 135.69 13.47L135.69 13.47L135.69 13.47Q135.13 13.50 135.11 13.50L135.11 13.50L135.11 13.50Q134.82 13.50 134.82 13.27L134.82 13.27L134.82 13.27Q134.82 13.12 135.00 13.05L135.00 13.05L135.00 13.05Q135.18 12.99 135.41 12.96L135.41 12.96L135.41 12.96Q135.63 12.94 135.81 12.66L135.81 12.66L135.81 12.66Q136.00 12.38 136.00 11.86L136.00 11.86L136.00 11.86Q136.00 11.49 136.00 9.90L136.00 9.90L136.00 9.90Q136.01 8.30 136.01 7.45L136.01 7.45L136.01 7.45Q136.01 6.58 136.00 5.86L136.00 5.86L136.00 5.86Q136.00 5.14 136.00 5.08L136.00 5.08L136.00 5.08Q136.00 4.56 135.79 4.29L135.79 4.29L135.79 4.29Q135.58 4.02 135.32 3.98L135.32 3.98L135.32 3.98Q135.06 3.95 134.85 3.89L134.85 3.89L134.85 3.89Q134.64 3.84 134.64 3.70ZM137.17 5.54L137.17 5.94L137.17 5.94Q137.17 7.38 137.19 7.72L137.19 7.72L137.19 7.72Q137.20 8.06 137.28 8.12L137.28 8.12L137.28 8.12Q137.49 8.25 137.89 8.25L137.89 8.25L138.03 8.25L138.43 8.25L138.43 8.25Q139.62 8.25 140.13 7.70L140.13 7.70L140.13 7.70Q140.64 7.15 140.64 6.30L140.64 6.30L140.64 6.30Q140.64 5.43 139.97 4.72L139.97 4.72L139.97 4.72Q139.29 4.00 137.91 4.00L137.91 4.00L137.91 4.00Q137.40 4.00 137.28 4.28L137.28 4.28L137.28 4.28Q137.17 4.55 137.17 5.54L137.17 5.54ZM151.69 3.65L151.69 3.65L151.69 3.65Q151.69 3.46 152.08 3.46L152.08 3.46L152.08 3.46Q152.14 3.46 152.26 3.47L152.26 3.47L152.26 3.47Q152.39 3.49 152.46 3.49L152.46 3.49L152.46 3.49Q152.50 3.49 153.78 3.52L153.78 3.52L153.78 3.52Q155.05 3.56 155.88 3.56L155.88 3.56L155.88 3.56Q156.17 3.56 157.32 3.53L157.32 3.53L157.32 3.53Q158.48 3.50 158.68 3.50L158.68 3.50L158.68 3.50Q158.94 3.50 158.94 3.82L158.94 3.82L158.94 3.82Q158.94 3.91 158.86 4.38L158.86 4.38L158.86 4.38Q158.77 4.84 158.77 5.25L158.77 5.25L158.77 5.25Q158.77 5.38 158.70 5.47L158.70 5.47L158.70 5.47Q158.63 5.56 158.55 5.56L158.55 5.56L158.55 5.56Q158.34 5.56 158.34 5.26L158.34 5.26L158.34 5.26Q158.34 4.89 158.10 4.58L158.10 4.58L158.10 4.58Q157.86 4.27 157.51 4.26L157.51 4.26L157.51 4.26Q156.25 4.16 155.58 4.16L155.58 4.16L155.22 4.16L155.22 4.16Q154.49 4.16 154.37 4.26L154.37 4.26L154.37 4.26Q154.25 4.37 154.22 5.01L154.22 5.01L154.22 5.01Q154.17 6.02 154.17 7.35L154.17 7.35L154.17 7.35Q154.17 8.05 154.43 8.06L154.43 8.06L154.78 8.06L155.37 8.06L155.81 8.06L155.81 8.06Q156.65 8.06 156.93 8.01L156.93 8.01L156.93 8.01Q157.21 7.95 157.43 7.80L157.43 7.80L157.43 7.80Q157.70 7.62 157.75 7.28L157.75 7.28L157.75 7.28Q157.79 7.04 157.95 7.04L157.95 7.04L157.95 7.04Q158.07 7.04 158.10 7.08L158.10 7.08L158.10 7.08Q158.13 7.13 158.13 7.27L158.13 7.27L158.13 7.27Q158.13 7.36 158.07 7.91L158.07 7.91L158.07 7.91Q158.02 8.46 158.02 8.74L158.02 8.74L158.02 8.74Q158.02 9.00 158.04 9.24L158.04 9.24L158.04 9.24Q158.06 9.48 158.06 9.59L158.06 9.59L158.06 9.59Q158.06 9.94 157.96 9.94L157.96 9.94L157.96 9.94Q157.75 9.94 157.65 9.60L157.65 9.60L157.65 9.60Q157.46 9.02 157.30 8.92L157.30 8.92L157.30 8.92Q157.01 8.72 155.96 8.72L155.96 8.72L155.96 8.72Q155.54 8.72 155.28 8.72L155.28 8.72L155.28 8.72Q155.02 8.72 154.94 8.71L154.94 8.71L154.94 8.71Q154.87 8.71 154.82 8.71L154.82 8.71L154.82 8.71Q154.77 8.71 154.73 8.71L154.73 8.71L154.73 8.71Q154.15 8.71 154.15 8.97L154.15 8.97L154.15 8.97Q154.15 9.38 154.14 9.99L154.14 9.99L154.14 9.99Q154.13 10.60 154.13 10.99L154.13 10.99L154.13 11.55L154.13 11.55Q154.13 12.56 154.46 12.66L154.46 12.66L154.46 12.66Q154.81 12.77 155.06 12.77L155.06 12.77L155.06 12.77Q156.11 12.77 156.91 12.67L156.91 12.67L156.91 12.67Q157.70 12.57 158.09 12.42L158.09 12.42L158.09 12.42Q158.49 12.28 158.76 12.10L158.76 12.10L158.76 12.10Q159.03 11.93 159.10 11.78L159.10 11.78L159.10 11.78Q159.18 11.63 159.26 11.54L159.26 11.54L159.26 11.54Q159.33 11.44 159.42 11.44L159.42 11.44L159.42 11.44Q159.59 11.44 159.59 11.68L159.59 11.68L159.59 11.68Q159.59 12.28 158.98 12.89L158.98 12.89L158.98 12.89Q158.38 13.51 157.93 13.51L157.93 13.51L157.93 13.51Q156.93 13.51 155.66 13.44L155.66 13.44L155.66 13.44Q154.39 13.37 154.08 13.37L154.08 13.37L154.08 13.37Q153.69 13.37 153.10 13.43L153.10 13.43L153.10 13.43Q152.52 13.50 152.18 13.50L152.18 13.50L152.18 13.50Q151.89 13.50 151.89 13.36L151.89 13.36L151.89 13.36Q151.89 13.23 151.89 13.19L151.89 13.19L151.89 13.19Q151.89 13.15 151.93 13.12L151.93 13.12L151.93 13.12Q151.97 13.09 152.02 13.08L152.02 13.08L152.02 13.08Q152.07 13.08 152.20 13.03L152.20 13.03L152.20 13.03Q152.33 12.99 152.49 12.92L152.49 12.92L152.49 12.92Q152.82 12.75 152.93 12.26L152.93 12.26L152.93 12.26Q153.03 11.77 153.03 10.21L153.03 10.21L153.03 8.47L153.03 8.47Q153.03 8.09 153.06 7.29L153.06 7.29L153.06 7.29Q153.08 6.50 153.08 6.05L153.08 6.05L153.08 6.05Q153.08 5.67 153.05 4.77L153.05 4.77L153.05 4.77Q153.03 4.37 152.70 4.14L152.70 4.14L152.70 4.14Q152.36 3.92 151.91 3.91L151.91 3.91L151.91 3.91Q151.69 3.91 151.69 3.65ZM167.48 8.90L167.48 8.90L167.48 8.90Q167.48 7.38 168.07 6.16L168.07 6.16L168.07 6.16Q168.66 4.94 169.88 4.19L169.88 4.19L169.88 4.19Q171.11 3.44 172.79 3.44L172.79 3.44L172.79 3.44Q173.64 3.44 174.51 3.70L174.51 3.70L174.51 3.70Q175.38 3.95 175.90 4.20L175.90 4.20L176.41 4.47L176.41 4.47Q176.46 4.47 176.55 4.40L176.55 4.40L176.55 4.40Q176.65 4.33 176.71 4.33L176.71 4.33L176.71 4.33Q176.78 4.33 176.85 4.38L176.85 4.38L176.85 4.38Q176.92 4.44 176.92 4.55L176.92 4.55L176.92 4.55Q176.93 4.96 176.98 5.41L176.98 5.41L176.98 5.41Q177.03 5.87 177.07 6.16L177.07 6.16L177.07 6.16Q177.11 6.45 177.11 6.51L177.11 6.51L177.11 6.51Q177.11 6.76 176.95 6.76L176.95 6.76L176.95 6.76Q176.82 6.76 176.71 6.57L176.71 6.57L176.71 6.57Q175.35 4.02 172.79 4.02L172.79 4.02L172.79 4.02Q171.04 4.02 169.92 5.14L169.92 5.14L169.92 5.14Q168.80 6.26 168.80 8.06L168.80 8.06L168.80 8.06Q168.80 9.06 169.06 9.93L169.06 9.93L169.06 9.93Q169.32 10.79 169.84 11.51L169.84 11.51L169.84 11.51Q170.37 12.24 171.29 12.66L171.29 12.66L171.29 12.66Q172.21 13.08 173.45 13.08L173.45 13.08L173.45 13.08Q175.46 13.08 176.83 10.98L176.83 10.98L176.83 10.98Q176.89 10.88 177.04 10.88L177.04 10.88L177.04 10.88Q177.17 10.88 177.17 11.07L177.17 11.07L177.17 11.07Q177.17 11.23 177.12 11.49L177.12 11.49L177.12 11.49Q177.07 11.75 177.00 12.06L177.00 12.06L177.00 12.06Q176.93 12.38 176.92 12.45L176.92 12.45L176.92 12.45Q176.89 12.60 176.69 12.70L176.69 12.70L176.69 12.70Q175.94 13.06 175.51 13.24L175.51 13.24L175.51 13.24Q175.08 13.43 174.43 13.57L174.43 13.57L174.43 13.57Q173.77 13.72 173.08 13.72L173.08 13.72L173.08 13.72Q171.86 13.72 170.88 13.43L170.88 13.43L170.88 13.43Q169.90 13.13 169.28 12.66L169.28 12.66L169.28 12.66Q168.66 12.18 168.24 11.54L168.24 11.54L168.24 11.54Q167.82 10.91 167.65 10.25L167.65 10.25L167.65 10.25Q167.48 9.60 167.48 8.90ZM185.44 3.68L185.44 3.68L185.44 3.68Q185.44 3.61 185.46 3.58L185.46 3.58L185.46 3.58Q185.47 3.56 185.54 3.53L185.54 3.53L185.54 3.53Q185.61 3.50 185.77 3.50L185.77 3.50L185.77 3.50Q185.92 3.50 186.41 3.53L186.41 3.53L186.41 3.53Q186.90 3.56 187.35 3.56L187.35 3.56L187.35 3.56Q187.63 3.56 187.86 3.54L187.86 3.54L187.86 3.54Q188.09 3.53 188.66 3.53L188.66 3.53L188.66 3.53Q188.96 3.53 188.96 3.72L188.96 3.72L188.96 3.72Q188.96 3.85 188.86 3.88L188.86 3.88L188.86 3.88Q188.76 3.91 188.61 3.92L188.61 3.92L188.61 3.92Q188.47 3.93 188.32 4.02L188.32 4.02L188.32 4.02Q188.17 4.10 188.08 4.43L188.08 4.43L188.08 4.43Q187.98 4.76 187.98 5.32L187.98 5.32L187.98 5.71L187.98 5.71Q187.98 6.37 187.97 7.37L187.97 7.37L187.97 7.37Q187.96 8.37 187.96 8.74L187.96 8.74L187.96 8.74Q187.96 9.17 187.97 9.39L187.97 9.39L187.97 9.39Q187.98 9.62 188.01 10.04L188.01 10.04L188.01 10.04Q188.03 10.47 188.08 10.72L188.08 10.72L188.08 10.72Q188.13 10.96 188.24 11.32L188.24 11.32L188.24 11.32Q188.36 11.68 188.52 11.89L188.52 11.89L188.52 11.89Q188.68 12.10 188.92 12.35L188.92 12.35L188.92 12.35Q189.17 12.60 189.49 12.73L189.49 12.73L189.49 12.73Q189.81 12.87 190.25 12.96L190.25 12.96L190.25 12.96Q190.68 13.05 191.21 13.05L191.21 13.05L191.21 13.05Q191.66 13.05 191.91 13.03L191.91 13.03L191.91 13.03Q192.16 13.02 192.60 12.94L192.60 12.94L192.60 12.94Q193.05 12.87 193.30 12.72L193.30 12.72L193.30 12.72Q193.56 12.57 193.89 12.27L193.89 12.27L193.89 12.27Q194.22 11.97 194.40 11.54L194.40 11.54L194.40 11.54Q194.59 11.10 194.71 10.43L194.71 10.43L194.71 10.43Q194.84 9.76 194.84 8.90L194.84 8.90L194.84 8.90Q194.84 7.49 194.83 6.75L194.83 6.75L194.83 6.75Q194.82 6.01 194.82 5.94L194.82 5.94L194.82 5.94Q194.82 5.45 194.80 5.17L194.80 5.17L194.80 5.17Q194.78 4.89 194.66 4.55L194.66 4.55L194.66 4.55Q194.54 4.21 194.32 4.06L194.32 4.06L194.32 4.06Q194.18 3.96 193.96 3.93L193.96 3.93L193.96 3.93Q193.73 3.89 193.59 3.87L193.59 3.87L193.59 3.87Q193.45 3.85 193.45 3.75L193.45 3.75L193.45 3.75Q193.45 3.53 193.73 3.53L193.73 3.53L193.73 3.53Q193.82 3.53 194.28 3.54L194.28 3.54L194.28 3.54Q194.74 3.56 194.81 3.56L194.81 3.56L194.81 3.56Q195.15 3.56 195.52 3.54L195.52 3.54L195.52 3.54Q195.90 3.51 196 3.51L196 3.51L196 3.51Q196.29 3.51 196.29 3.70L196.29 3.70L196.29 3.70Q196.29 3.81 195.99 3.98L195.99 3.98L195.99 3.98Q195.69 4.16 195.62 4.30L195.62 4.30L195.62 4.30Q195.47 4.59 195.47 5.22L195.47 5.22L195.47 5.22Q195.47 5.32 195.47 5.62L195.47 5.62L195.47 5.62Q195.48 5.92 195.48 6.16L195.48 6.16L195.48 6.16Q195.48 8.85 195.26 10.28L195.26 10.28L195.26 10.28Q195.03 11.70 194.58 12.36L194.58 12.36L194.58 12.36Q194.12 13.01 193.21 13.40L193.21 13.40L193.21 13.40Q192.47 13.71 191.21 13.71L191.21 13.71L191.21 13.71Q188.87 13.71 187.89 12.81L187.89 12.81L187.89 12.81Q187.12 12.10 186.94 11.09L186.94 11.09L186.94 11.09Q186.76 10.09 186.76 7.64L186.76 7.64L186.76 7.41L186.76 7.41Q186.76 6.86 186.77 6.20L186.77 6.20L186.77 6.20Q186.79 5.54 186.79 5.39L186.79 5.39L186.79 5.39Q186.79 4.62 186.61 4.33L186.61 4.33L186.61 4.33Q186.42 4.05 185.75 3.95L185.75 3.95L185.75 3.95Q185.44 3.91 185.44 3.68ZM203.85 3.65L203.85 3.65L203.85 3.65Q203.85 3.46 204.25 3.46L204.25 3.46L204.25 3.46Q204.30 3.46 204.43 3.47L204.43 3.47L204.43 3.47Q204.55 3.49 204.62 3.49L204.62 3.49L204.62 3.49Q204.67 3.49 205.94 3.52L205.94 3.52L205.94 3.52Q207.21 3.56 208.04 3.56L208.04 3.56L208.04 3.56Q208.33 3.56 209.49 3.53L209.49 3.53L209.49 3.53Q210.64 3.50 210.84 3.50L210.84 3.50L210.84 3.50Q211.11 3.50 211.11 3.82L211.11 3.82L211.11 3.82Q211.11 3.91 211.02 4.38L211.02 4.38L211.02 4.38Q210.94 4.84 210.94 5.25L210.94 5.25L210.94 5.25Q210.94 5.38 210.87 5.47L210.87 5.47L210.87 5.47Q210.80 5.56 210.71 5.56L210.71 5.56L210.71 5.56Q210.50 5.56 210.50 5.26L210.50 5.26L210.50 5.26Q210.50 4.89 210.27 4.58L210.27 4.58L210.27 4.58Q210.03 4.27 209.68 4.26L209.68 4.26L209.68 4.26Q208.42 4.16 207.75 4.16L207.75 4.16L207.38 4.16L207.38 4.16Q206.65 4.16 206.53 4.26L206.53 4.26L206.53 4.26Q206.42 4.37 206.39 5.01L206.39 5.01L206.39 5.01Q206.33 6.02 206.33 7.35L206.33 7.35L206.33 7.35Q206.33 8.05 206.60 8.06L206.60 8.06L206.95 8.06L207.54 8.06L207.97 8.06L207.97 8.06Q208.81 8.06 209.09 8.01L209.09 8.01L209.09 8.01Q209.37 7.95 209.59 7.80L209.59 7.80L209.59 7.80Q209.86 7.62 209.92 7.28L209.92 7.28L209.92 7.28Q209.96 7.04 210.11 7.04L210.11 7.04L210.11 7.04Q210.24 7.04 210.27 7.08L210.27 7.08L210.27 7.08Q210.29 7.13 210.29 7.27L210.29 7.27L210.29 7.27Q210.29 7.36 210.24 7.91L210.24 7.91L210.24 7.91Q210.18 8.46 210.18 8.74L210.18 8.74L210.18 8.74Q210.18 9.00 210.20 9.24L210.20 9.24L210.20 9.24Q210.22 9.48 210.22 9.59L210.22 9.59L210.22 9.59Q210.22 9.94 210.13 9.94L210.13 9.94L210.13 9.94Q209.92 9.94 209.82 9.60L209.82 9.60L209.82 9.60Q209.62 9.02 209.47 8.92L209.47 8.92L209.47 8.92Q209.17 8.72 208.12 8.72L208.12 8.72L208.12 8.72Q207.70 8.72 207.44 8.72L207.44 8.72L207.44 8.72Q207.19 8.72 207.11 8.71L207.11 8.71L207.11 8.71Q207.03 8.71 206.98 8.71L206.98 8.71L206.98 8.71Q206.93 8.71 206.89 8.71L206.89 8.71L206.89 8.71Q206.32 8.71 206.32 8.97L206.32 8.97L206.32 8.97Q206.32 9.38 206.30 9.99L206.30 9.99L206.30 9.99Q206.29 10.60 206.29 10.99L206.29 10.99L206.29 11.55L206.29 11.55Q206.29 12.56 206.63 12.66L206.63 12.66L206.63 12.66Q206.98 12.77 207.23 12.77L207.23 12.77L207.23 12.77Q208.28 12.77 209.07 12.67L209.07 12.67L209.07 12.67Q209.86 12.57 210.26 12.42L210.26 12.42L210.26 12.42Q210.66 12.28 210.92 12.10L210.92 12.10L210.92 12.10Q211.19 11.93 211.27 11.78L211.27 11.78L211.27 11.78Q211.34 11.63 211.42 11.54L211.42 11.54L211.42 11.54Q211.50 11.44 211.58 11.44L211.58 11.44L211.58 11.44Q211.75 11.44 211.75 11.68L211.75 11.68L211.75 11.68Q211.75 12.28 211.15 12.89L211.15 12.89L211.15 12.89Q210.55 13.51 210.10 13.51L210.10 13.51L210.10 13.51Q209.09 13.51 207.82 13.44L207.82 13.44L207.82 13.44Q206.56 13.37 206.25 13.37L206.25 13.37L206.25 13.37Q205.86 13.37 205.27 13.43L205.27 13.43L205.27 13.43Q204.68 13.50 204.34 13.50L204.34 13.50L204.34 13.50Q204.05 13.50 204.05 13.36L204.05 13.36L204.05 13.36Q204.05 13.23 204.05 13.19L204.05 13.19L204.05 13.19Q204.05 13.15 204.09 13.12L204.09 13.12L204.09 13.12Q204.13 13.09 204.18 13.08L204.18 13.08L204.18 13.08Q204.23 13.08 204.36 13.03L204.36 13.03L204.36 13.03Q204.50 12.99 204.65 12.92L204.65 12.92L204.65 12.92Q204.99 12.75 205.09 12.26L205.09 12.26L205.09 12.26Q205.20 11.77 205.20 10.21L205.20 10.21L205.20 8.47L205.20 8.47Q205.20 8.09 205.22 7.29L205.22 7.29L205.22 7.29Q205.24 6.50 205.24 6.05L205.24 6.05L205.24 6.05Q205.24 5.67 205.21 4.77L205.21 4.77L205.21 4.77Q205.20 4.37 204.86 4.14L204.86 4.14L204.86 4.14Q204.53 3.92 204.08 3.91L204.08 3.91L204.08 3.91Q203.85 3.91 203.85 3.65ZM219.31 3.70L219.31 3.70L219.31 3.70Q219.31 3.47 219.72 3.47L219.72 3.47L222.04 3.47L222.04 3.47Q222.36 3.47 222.78 3.45L222.78 3.45L222.78 3.45Q223.20 3.43 223.44 3.43L223.44 3.43L223.44 3.43Q224.70 3.43 225.60 4.07L225.60 4.07L225.60 4.07Q226.49 4.70 226.49 5.78L226.49 5.78L226.49 5.78Q226.49 6.50 226.22 7.03L226.22 7.03L226.22 7.03Q225.95 7.57 225.62 7.81L225.62 7.81L225.62 7.81Q225.29 8.05 225.01 8.22L225.01 8.22L225.01 8.22Q224.74 8.40 224.74 8.46L224.74 8.46L224.74 8.46Q224.74 8.62 225.92 10.27L225.92 10.27L225.92 10.27Q227.09 11.91 227.53 12.38L227.53 12.38L227.53 12.38Q228.06 13.03 228.82 13.03L228.82 13.03L228.82 13.03Q229.01 13.03 229.01 13.20L229.01 13.20L229.01 13.20Q229.01 13.41 228.84 13.48L228.84 13.48L228.84 13.48Q228.68 13.55 227.98 13.55L227.98 13.55L227.98 13.55Q227.32 13.55 226.77 13.23L226.77 13.23L226.77 13.23Q226.07 12.82 224.41 10.09L224.41 10.09L224.41 10.09Q224.31 9.94 224.27 9.87L224.27 9.87L224.27 9.87Q223.59 8.78 223.23 8.78L223.23 8.78L222.94 8.78L222.08 8.78L222.08 8.78Q221.91 8.78 221.88 8.92L221.88 8.92L221.88 8.92Q221.84 9.06 221.84 9.77L221.84 9.77L221.84 9.77Q221.84 10.44 221.84 10.88L221.84 10.88L221.84 10.88Q221.84 11.31 221.85 11.43L221.85 11.43L221.85 11.43Q221.86 11.55 221.86 11.63L221.86 11.63L221.86 11.63Q221.86 11.70 221.86 11.75L221.86 11.75L221.86 11.75Q221.86 12.32 222.12 12.63L222.12 12.63L222.12 12.63Q222.39 12.95 222.72 13.00L222.72 13.00L222.72 13.00Q223.05 13.05 223.31 13.11L223.31 13.11L223.31 13.11Q223.58 13.17 223.58 13.31L223.58 13.31L223.58 13.31Q223.58 13.54 223.33 13.54L223.33 13.54L223.33 13.54Q223.31 13.54 222.36 13.49L222.36 13.49L222.36 13.49Q221.41 13.44 221.33 13.44L221.33 13.44L221.33 13.44Q220.92 13.44 220.36 13.47L220.36 13.47L220.36 13.47Q219.80 13.50 219.79 13.50L219.79 13.50L219.79 13.50Q219.49 13.50 219.49 13.27L219.49 13.27L219.49 13.27Q219.49 13.12 219.67 13.05L219.67 13.05L219.67 13.05Q219.86 12.99 220.08 12.96L220.08 12.96L220.08 12.96Q220.30 12.94 220.49 12.66L220.49 12.66L220.49 12.66Q220.67 12.38 220.67 11.86L220.67 11.86L220.67 11.86Q220.67 11.49 220.67 9.90L220.67 9.90L220.67 9.90Q220.68 8.30 220.68 7.45L220.68 7.45L220.68 7.45Q220.68 6.58 220.67 5.86L220.67 5.86L220.67 5.86Q220.67 5.14 220.67 5.08L220.67 5.08L220.67 5.08Q220.67 4.56 220.46 4.29L220.46 4.29L220.46 4.29Q220.25 4.02 219.99 3.98L219.99 3.98L219.99 3.98Q219.73 3.95 219.52 3.89L219.52 3.89L219.52 3.89Q219.31 3.84 219.31 3.70ZM221.84 5.54L221.84 5.94L221.84 5.94Q221.84 7.38 221.86 7.72L221.86 7.72L221.86 7.72Q221.87 8.06 221.96 8.12L221.96 8.12L221.96 8.12Q222.17 8.25 222.56 8.25L222.56 8.25L222.70 8.25L223.10 8.25L223.10 8.25Q224.29 8.25 224.80 7.70L224.80 7.70L224.80 7.70Q225.32 7.15 225.32 6.30L225.32 6.30L225.32 6.30Q225.32 5.43 224.64 4.72L224.64 4.72L224.64 4.72Q223.96 4.00 222.59 4.00L222.59 4.00L222.59 4.00Q222.07 4.00 221.96 4.28L221.96 4.28L221.96 4.28Q221.84 4.55 221.84 5.54L221.84 5.54ZM236.36 3.64L236.36 3.64L236.36 3.64Q236.36 3.51 236.48 3.49L236.48 3.49L236.48 3.49Q236.60 3.47 237.08 3.47L237.08 3.47L238.29 3.47L238.29 3.47Q238.64 3.47 239.58 3.44L239.58 3.44L239.58 3.44Q240.52 3.42 241.02 3.42L241.02 3.42L241.02 3.42Q241.99 3.42 242.96 3.71L242.96 3.71L242.96 3.71Q243.92 4.00 244.73 4.56L244.73 4.56L244.73 4.56Q245.55 5.11 246.05 6.00L246.05 6.00L246.05 6.00Q246.55 6.89 246.55 7.98L246.55 7.98L246.55 7.98Q246.55 8.96 246.42 9.68L246.42 9.68L246.42 9.68Q246.29 10.40 245.98 10.93L245.98 10.93L245.98 10.93Q245.67 11.45 245.36 11.78L245.36 11.78L245.36 11.78Q245.06 12.11 244.52 12.56L244.52 12.56L244.52 12.56Q244.10 12.89 243.31 13.19L243.31 13.19L243.31 13.19Q242.51 13.48 241.67 13.48L241.67 13.48L241.67 13.48Q241.58 13.48 240.24 13.45L240.24 13.45L240.24 13.45Q238.90 13.41 238.31 13.41L238.31 13.41L238.31 13.41Q237.82 13.41 237.40 13.45L237.40 13.45L237.40 13.45Q236.98 13.48 236.91 13.48L236.91 13.48L236.91 13.48Q236.57 13.48 236.57 13.30L236.57 13.30L236.57 13.30Q236.57 13.19 236.62 13.14L236.62 13.14L236.62 13.14Q236.67 13.09 236.83 13.05L236.83 13.05L236.83 13.05Q236.99 13.01 237.06 12.98L237.06 12.98L237.06 12.98Q237.29 12.88 237.47 12.61L237.47 12.61L237.47 12.61Q237.66 12.33 237.66 12.07L237.66 12.07L237.66 12.07Q237.66 11.28 237.67 10.07L237.67 10.07L237.67 10.07Q237.68 8.85 237.68 8.27L237.68 8.27L237.68 8.27Q237.68 7.77 237.67 6.70L237.67 6.70L237.67 6.70Q237.66 5.63 237.66 4.72L237.66 4.72L237.66 4.72Q237.66 4.48 237.43 4.23L237.43 4.23L237.43 4.23Q237.20 3.99 236.92 3.98L236.92 3.98L236.92 3.98Q236.73 3.96 236.63 3.95L236.63 3.95L236.63 3.95Q236.54 3.93 236.45 3.86L236.45 3.86L236.45 3.86Q236.36 3.78 236.36 3.64ZM238.84 11.47L238.84 11.47L238.84 11.47Q238.84 11.73 238.85 11.90L238.85 11.90L238.85 11.90Q238.85 12.07 238.90 12.21L238.90 12.21L238.90 12.21Q238.95 12.35 238.98 12.40L238.98 12.40L238.98 12.40Q239.01 12.46 239.15 12.53L239.15 12.53L239.15 12.53Q239.29 12.60 239.36 12.62L239.36 12.62L239.36 12.62Q239.44 12.64 239.69 12.71L239.69 12.71L239.69 12.71Q239.95 12.78 240.11 12.82L240.11 12.82L240.11 12.82Q240.60 12.96 241.14 12.96L241.14 12.96L241.42 12.96L241.42 12.96Q242.37 12.96 243.04 12.69L243.04 12.69L243.04 12.69Q243.71 12.42 244.33 11.83L244.33 11.83L244.33 11.83Q245.36 10.84 245.36 8.61L245.36 8.61L245.36 8.61Q245.36 7.49 244.92 6.58L244.92 6.58L244.92 6.58Q244.48 5.67 243.77 5.13L243.77 5.13L243.77 5.13Q243.05 4.59 242.23 4.30L242.23 4.30L242.23 4.30Q241.40 4.02 240.56 4.02L240.56 4.02L240.56 4.02Q240.18 4.02 240.01 4.02L240.01 4.02L240.01 4.02Q239.83 4.02 239.60 4.05L239.60 4.05L239.60 4.05Q239.37 4.09 239.29 4.11L239.29 4.11L239.29 4.11Q239.22 4.13 239.11 4.25L239.11 4.25L239.11 4.25Q238.99 4.37 238.97 4.45L238.97 4.45L238.97 4.45Q238.95 4.54 238.92 4.78L238.92 4.78L238.92 4.78Q238.88 5.03 238.88 5.21L238.88 5.21L238.88 5.21Q238.88 5.39 238.88 5.80L238.88 5.80L238.88 5.80Q238.88 6.10 238.87 7.24L238.87 7.24L238.87 7.24Q238.85 8.39 238.85 8.48L238.85 8.48L238.85 8.48Q238.85 9.32 238.85 10.30L238.85 10.30L238.85 10.30Q238.84 11.28 238.84 11.47ZM254.79 8.69L254.79 8.69L254.79 8.69Q254.79 6.34 256.20 4.84L256.20 4.84L256.20 4.84Q257.61 3.33 260.20 3.33L260.20 3.33L260.20 3.33Q261.41 3.33 262.37 3.68L262.37 3.68L262.37 3.68Q263.34 4.03 263.90 4.54L263.90 4.54L263.90 4.54Q264.46 5.05 264.84 5.71L264.84 5.71L264.84 5.71Q265.22 6.37 265.36 6.92L265.36 6.92L265.36 6.92Q265.50 7.48 265.50 7.95L265.50 7.95L265.50 7.95Q265.50 9.86 264.75 11.16L264.75 11.16L264.75 11.16Q264.01 12.47 262.80 13.07L262.80 13.07L262.80 13.07Q261.59 13.66 260.01 13.66L260.01 13.66L260.01 13.66Q258.34 13.66 257.13 12.94L257.13 12.94L257.13 12.94Q255.92 12.21 255.35 11.10L255.35 11.10L255.35 11.10Q254.79 10.00 254.79 8.69ZM256.02 7.98L256.02 7.98L256.02 7.98Q256.02 8.54 256.17 9.19L256.17 9.19L256.17 9.19Q256.33 9.84 256.68 10.54L256.68 10.54L256.68 10.54Q257.03 11.23 257.52 11.78L257.52 11.78L257.52 11.78Q258.02 12.33 258.78 12.69L258.78 12.69L258.78 12.69Q259.55 13.05 260.46 13.05L260.46 13.05L260.46 13.05Q260.93 13.05 261.46 12.90L261.46 12.90L261.46 12.90Q261.98 12.75 262.50 12.45L262.50 12.45L262.50 12.45Q263.02 12.14 263.42 11.70L263.42 11.70L263.42 11.70Q263.83 11.26 264.09 10.62L264.09 10.62L264.09 10.62Q264.35 9.98 264.35 9.24L264.35 9.24L264.35 9.24Q264.35 6.71 263.02 5.30L263.02 5.30L263.02 5.30Q261.69 3.89 259.73 3.89L259.73 3.89L259.73 3.89Q258.19 3.89 257.10 4.93L257.10 4.93L257.10 4.93Q256.02 5.96 256.02 7.98ZM273.94 10.82L273.94 10.82L273.94 10.82Q273.94 10.53 274.13 10.53L274.13 10.53L274.13 10.53Q274.32 10.53 274.36 10.67L274.36 10.67L274.36 10.67Q274.50 11.00 274.62 11.25L274.62 11.25L274.62 11.25Q274.74 11.49 275.00 11.85L275.00 11.85L275.00 11.85Q275.27 12.21 275.58 12.44L275.58 12.44L275.58 12.44Q275.88 12.67 276.37 12.84L276.37 12.84L276.37 12.84Q276.85 13.01 277.42 13.01L277.42 13.01L277.42 13.01Q278.47 13.01 279.11 12.45L279.11 12.45L279.11 12.45Q279.75 11.90 279.75 11.00L279.75 11.00L279.75 11.00Q279.75 10.35 279.31 9.90L279.31 9.90L279.31 9.90Q278.88 9.46 278.32 9.27L278.32 9.27L278.32 9.27Q277.76 9.09 276.90 8.77L276.90 8.77L276.90 8.77Q276.04 8.46 275.49 8.13L275.49 8.13L275.49 8.13Q274.22 7.38 274.22 6.08L274.22 6.08L274.22 6.08Q274.22 4.83 275.12 4.08L275.12 4.08L275.12 4.08Q276.02 3.33 277.47 3.33L277.47 3.33L277.47 3.33Q278.00 3.33 278.73 3.56L278.73 3.56L278.73 3.56Q279.47 3.79 279.48 3.79L279.48 3.79L279.48 3.79Q279.52 3.79 279.64 3.74L279.64 3.74L279.64 3.74Q279.75 3.68 279.80 3.68L279.80 3.68L279.80 3.68Q279.99 3.68 280.01 3.79L280.01 3.79L280.01 3.79Q280.31 5.49 280.31 5.70L280.31 5.70L280.31 5.70Q280.31 6.09 280.11 6.09L280.11 6.09L280.11 6.09Q279.99 6.09 279.92 5.89L279.92 5.89L279.92 5.89Q279.75 5.49 279.59 5.24L279.59 5.24L279.59 5.24Q279.43 4.98 279.36 4.91L279.36 4.91L279.36 4.91Q279.29 4.84 278.99 4.58L278.99 4.58L278.99 4.58Q278.24 3.91 277.16 3.91L277.16 3.91L277.16 3.91Q276.29 3.91 275.70 4.33L275.70 4.33L275.70 4.33Q275.11 4.75 275.11 5.46L275.11 5.46L275.11 5.46Q275.11 6.09 275.46 6.50L275.46 6.50L275.46 6.50Q275.80 6.90 276.37 7.13L276.37 7.13L276.37 7.13Q276.95 7.35 277.58 7.55L277.58 7.55L277.58 7.55Q278.21 7.74 278.91 8.09L278.91 8.09L278.91 8.09Q279.62 8.44 280.08 8.93L280.08 8.93L280.08 8.93Q280.64 9.53 280.64 10.43L280.64 10.43L280.64 10.43Q280.64 11.90 279.71 12.76L279.71 12.76L279.71 12.76Q278.77 13.62 277.38 13.62L277.38 13.62L277.38 13.62Q276.42 13.62 275.83 13.52L275.83 13.52L275.83 13.52Q275.24 13.41 274.62 13.09L274.62 13.09L274.62 13.09Q274.44 12.98 274.19 12.00L274.19 12.00L274.19 12.00Q273.94 11.02 273.94 10.82Z"></path></g></svg>