<svg data-v-423bf9ae="" xmlns="http://www.w3.org/2000/svg" viewBox="0 0 389.04333525549777 60" class="font"><!----><!----><!----><g data-v-423bf9ae="" id="e70990af-46d3-4a69-b829-1c1d9fccead0" fill="white" transform="matrix(4.905968729932779,0,0,4.905968729932779,-5.543742046897023,0.0490603957829876)"><path d="M6.69 1.36L8.65 1.36L8.65 10.50L6.69 10.50L6.69 6.57L3.08 6.57L3.08 10.50L1.13 10.50L1.13 1.36L3.08 1.36L3.08 5.01L6.69 5.01L6.69 1.36ZM12.77 10.50L10.88 10.50L10.88 3.29L12.77 3.29L12.77 10.50ZM12.87 1.02L12.87 1.02L12.87 1.02Q12.87 1.47 12.56 1.78L12.56 1.78L12.56 1.78Q12.25 2.09 11.82 2.09L11.82 2.09L11.82 2.09Q11.37 2.09 11.06 1.78L11.06 1.78L11.06 1.78Q10.75 1.47 10.75 1.02L10.75 1.02L10.75 1.02Q10.75 0.59 11.06 0.29L11.06 0.29L11.06 0.29Q11.37-0.01 11.82-0.01L11.82-0.01L11.82-0.01Q12.25-0.01 12.56 0.29L12.56 0.29L12.56 0.29Q12.87 0.59 12.87 1.02ZM18.91 10.65L18.91 10.65L18.91 10.65Q18.37 10.65 17.96 10.49L17.96 10.49L17.96 10.49Q17.56 10.32 17.28 10.11L17.28 10.11L17.28 10.11Q16.95 9.87 16.72 9.56L16.72 9.56L16.72 12.22L14.84 12.22L14.84 3.29L16.30 3.29L16.66 4.24L16.66 4.24Q16.87 3.93 17.19 3.68L17.19 3.68L17.19 3.68Q17.47 3.47 17.89 3.30L17.89 3.30L17.89 3.30Q18.31 3.12 18.91 3.12L18.91 3.12L18.91 3.12Q19.74 3.12 20.31 3.42L20.31 3.42L20.31 3.42Q20.89 3.72 21.25 4.23L21.25 4.23L21.25 4.23Q21.60 4.73 21.76 5.41L21.76 5.41L21.76 5.41Q21.92 6.09 21.92 6.85L21.92 6.85L21.92 6.85Q21.92 7.60 21.76 8.29L21.76 8.29L21.76 8.29Q21.60 8.99 21.25 9.51L21.25 9.51L21.25 9.51Q20.89 10.04 20.31 10.35L20.31 10.35L20.31 10.35Q19.74 10.65 18.91 10.65ZM18.33 4.59L18.33 4.59L18.33 4.59Q17.65 4.59 17.19 5.14L17.19 5.14L17.19 5.14Q16.72 5.68 16.72 6.85L16.72 6.85L16.72 6.85Q16.72 7.99 17.19 8.60L17.19 8.60L17.19 8.60Q17.65 9.20 18.33 9.20L18.33 9.20L18.33 9.20Q18.66 9.20 18.96 9.04L18.96 9.04L18.96 9.04Q19.25 8.89 19.47 8.60L19.47 8.60L19.47 8.60Q19.68 8.30 19.82 7.86L19.82 7.86L19.82 7.86Q19.95 7.42 19.95 6.85L19.95 6.85L19.95 6.85Q19.95 6.27 19.82 5.84L19.82 5.84L19.82 5.84Q19.68 5.42 19.47 5.14L19.47 5.14L19.47 5.14Q19.25 4.86 18.96 4.72L18.96 4.72L18.96 4.72Q18.66 4.59 18.33 4.59ZM26.66 3.12L26.66 3.12L26.66 3.12Q27.22 3.12 27.87 3.29L27.87 3.29L27.87 3.29Q28.53 3.46 29.11 3.88L29.11 3.88L29.11 3.88Q29.68 4.30 30.07 5.03L30.07 5.03L30.07 5.03Q30.45 5.75 30.45 6.89L30.45 6.89L30.45 6.89Q30.45 8.02 30.07 8.75L30.07 8.75L30.07 8.75Q29.68 9.48 29.11 9.90L29.11 9.90L29.11 9.90Q28.53 10.32 27.87 10.49L27.87 10.49L27.87 10.49Q27.22 10.65 26.66 10.65L26.66 10.65L26.66 10.65Q26.10 10.65 25.44 10.49L25.44 10.49L25.44 10.49Q24.78 10.32 24.21 9.90L24.21 9.90L24.21 9.90Q23.65 9.48 23.27 8.75L23.27 8.75L23.27 8.75Q22.89 8.02 22.89 6.89L22.89 6.89L22.89 6.89Q22.89 5.75 23.27 5.03L23.27 5.03L23.27 5.03Q23.65 4.30 24.21 3.88L24.21 3.88L24.21 3.88Q24.78 3.46 25.44 3.29L25.44 3.29L25.44 3.29Q26.10 3.12 26.66 3.12ZM26.66 9.25L26.66 9.25L26.66 9.25Q27.44 9.25 27.97 8.64L27.97 8.64L27.97 8.64Q28.49 8.02 28.49 6.89L28.49 6.89L28.49 6.89Q28.49 5.75 27.97 5.14L27.97 5.14L27.97 5.14Q27.44 4.54 26.66 4.54L26.66 4.54L26.66 4.54Q25.90 4.54 25.38 5.14L25.38 5.14L25.38 5.14Q24.86 5.75 24.86 6.89L24.86 6.89L24.86 6.89Q24.86 7.45 25.00 7.89L25.00 7.89L25.00 7.89Q25.14 8.33 25.38 8.63L25.38 8.63L25.38 8.63Q25.62 8.93 25.95 9.09L25.95 9.09L25.95 9.09Q26.28 9.25 26.66 9.25ZM35.22 3.12L35.22 3.12L35.22 3.12Q35.66 3.12 35.99 3.18L35.99 3.18L35.99 3.18Q36.33 3.23 36.57 3.30L36.57 3.30L36.57 3.30Q36.83 3.39 37.06 3.49L37.06 3.49L37.06 4.82L37.06 4.82Q36.51 4.65 35.88 4.59L35.88 4.59L35.88 4.59Q35.24 4.54 34.69 4.74L34.69 4.74L34.69 4.74Q34.15 4.94 33.78 5.45L33.78 5.45L33.78 5.45Q33.42 5.95 33.42 6.89L33.42 6.89L33.42 6.89Q33.42 7.87 33.78 8.38L33.78 8.38L33.78 8.38Q34.15 8.89 34.69 9.06L34.69 9.06L34.69 9.06Q35.24 9.24 35.88 9.15L35.88 9.15L35.88 9.15Q36.51 9.06 37.06 8.85L37.06 8.85L37.06 10.23L37.06 10.23Q36.85 10.36 36.57 10.44L36.57 10.44L36.57 10.44Q36.33 10.53 35.99 10.59L35.99 10.59L35.99 10.59Q35.64 10.65 35.21 10.65L35.21 10.65L35.21 10.65Q34.66 10.65 34.01 10.51L34.01 10.51L34.01 10.51Q33.35 10.37 32.78 9.97L32.78 9.97L32.78 9.97Q32.21 9.56 31.84 8.83L31.84 8.83L31.84 8.83Q31.46 8.09 31.46 6.89L31.46 6.89L31.46 6.89Q31.46 5.70 31.84 4.96L31.84 4.96L31.84 4.96Q32.21 4.21 32.78 3.81L32.78 3.81L32.78 3.81Q33.35 3.40 34.01 3.26L34.01 3.26L34.01 3.26Q34.66 3.12 35.22 3.12ZM41.12 3.12L41.12 3.12L41.12 3.12Q41.58 3.12 42.11 3.27L42.11 3.27L42.11 3.27Q42.64 3.42 43.11 3.75L43.11 3.75L43.11 3.75Q43.57 4.07 43.86 4.59L43.86 4.59L43.86 4.59Q44.16 5.11 44.14 5.85L44.14 5.85L44.14 10.50L42.77 10.50L42.77 10.50Q42.77 10.50 42.73 10.33L42.73 10.33L42.73 10.33Q42.69 10.16 42.64 9.95L42.64 9.95L42.64 9.95Q42.59 9.74 42.55 9.58L42.55 9.58L42.55 9.58Q42.50 9.42 42.50 9.44L42.50 9.44L42.50 9.44Q42.31 9.79 41.99 10.05L41.99 10.05L41.99 10.05Q41.71 10.29 41.27 10.47L41.27 10.47L41.27 10.47Q40.82 10.65 40.18 10.65L40.18 10.65L40.18 10.65Q39.73 10.65 39.30 10.52L39.30 10.52L39.30 10.52Q38.86 10.39 38.52 10.13L38.52 10.13L38.52 10.13Q38.18 9.87 37.96 9.48L37.96 9.48L37.96 9.48Q37.74 9.09 37.73 8.57L37.73 8.57L37.73 8.57Q37.70 8.02 37.88 7.59L37.88 7.59L37.88 7.59Q38.05 7.17 38.38 6.86L38.38 6.86L38.38 6.86Q38.71 6.55 39.17 6.36L39.17 6.36L39.17 6.36Q39.63 6.17 40.18 6.10L40.18 6.10L40.18 6.10Q40.70 6.03 41.31 6.03L41.31 6.03L41.31 6.03Q41.93 6.03 42.42 6.06L42.42 6.06L42.42 5.84L42.42 5.84Q42.42 5.24 42.15 4.93L42.15 4.93L42.15 4.93Q41.89 4.63 41.49 4.54L41.49 4.54L41.49 4.54Q41.09 4.45 40.61 4.52L40.61 4.52L40.61 4.52Q40.14 4.59 39.70 4.72L39.70 4.72L39.70 4.72Q39.27 4.86 38.94 5.00L38.94 5.00L38.94 5.00Q38.61 5.15 38.53 5.22L38.53 5.22L38.53 3.81L38.53 3.81Q38.54 3.79 38.78 3.69L38.78 3.69L38.78 3.69Q39.02 3.58 39.38 3.46L39.38 3.46L39.38 3.46Q39.75 3.33 40.20 3.23L40.20 3.23L40.20 3.23Q40.66 3.12 41.12 3.12ZM42.01 8.68L42.01 8.68L42.01 8.68Q42.25 8.37 42.33 7.99L42.33 7.99L42.33 7.99Q42.41 7.62 42.41 7.20L42.41 7.20L41.59 7.20L41.59 7.20Q41.27 7.20 40.91 7.24L40.91 7.24L40.91 7.24Q40.54 7.28 40.24 7.41L40.24 7.41L40.24 7.41Q39.93 7.53 39.72 7.78L39.72 7.78L39.72 7.78Q39.51 8.02 39.51 8.44L39.51 8.44L39.51 8.44Q39.51 8.90 39.85 9.11L39.85 9.11L39.85 9.11Q40.19 9.32 40.70 9.32L40.70 9.32L40.70 9.32Q41.13 9.32 41.46 9.15L41.46 9.15L41.46 9.15Q41.79 8.97 42.01 8.68ZM54.15 3.12L54.15 3.12L54.15 3.12Q54.91 3.12 55.36 3.39L55.36 3.39L55.36 3.39Q55.82 3.65 56.06 4.09L56.06 4.09L56.06 4.09Q56.29 4.52 56.37 5.08L56.37 5.08L56.37 5.08Q56.45 5.64 56.45 6.24L56.45 6.24L56.45 10.50L54.57 10.50L54.57 10.49L54.56 6.19L54.56 6.19Q54.56 5.84 54.52 5.54L54.52 5.54L54.52 5.54Q54.47 5.25 54.36 5.04L54.36 5.04L54.36 5.04Q54.24 4.83 54.03 4.71L54.03 4.71L54.03 4.71Q53.82 4.59 53.49 4.59L53.49 4.59L53.49 4.59Q53.07 4.59 52.79 4.79L52.79 4.79L52.79 4.79Q52.51 4.98 52.36 5.29L52.36 5.29L52.36 5.29Q52.21 5.59 52.14 5.94L52.14 5.94L52.14 5.94Q52.08 6.29 52.08 6.59L52.08 6.59L52.08 10.50L50.23 10.50L50.23 10.49L50.22 10.49L50.22 6.19L50.22 6.19Q50.22 5.84 50.17 5.54L50.17 5.54L50.17 5.54Q50.12 5.25 49.99 5.03L49.99 5.03L49.99 5.03Q49.87 4.82 49.64 4.70L49.64 4.70L49.64 4.70Q49.42 4.58 49.07 4.58L49.07 4.58L49.07 4.58Q48.68 4.58 48.43 4.77L48.43 4.77L48.43 4.77Q48.17 4.97 48.02 5.27L48.02 5.27L48.02 5.27Q47.87 5.57 47.80 5.93L47.80 5.93L47.80 5.93Q47.74 6.29 47.74 6.59L47.74 6.59L47.74 10.50L45.86 10.50L45.86 3.29L47.28 3.29L47.59 4.40L47.59 4.40Q47.59 4.40 47.71 4.20L47.71 4.20L47.71 4.20Q47.84 4.00 48.09 3.77L48.09 3.77L48.09 3.77Q48.34 3.53 48.73 3.33L48.73 3.33L48.73 3.33Q49.11 3.12 49.64 3.12L49.64 3.12L49.64 3.12Q50.34 3.12 50.78 3.32L50.78 3.32L50.78 3.32Q51.21 3.51 51.46 3.75L51.46 3.75L51.46 3.75Q51.76 4.03 51.90 4.38L51.90 4.38L51.90 4.38Q51.93 4.34 52.05 4.14L52.05 4.14L52.05 4.14Q52.18 3.95 52.44 3.72L52.44 3.72L52.44 3.72Q52.71 3.49 53.13 3.30L53.13 3.30L53.13 3.30Q53.55 3.12 54.15 3.12ZM62.47 10.65L62.47 10.65L62.47 10.65Q61.92 10.65 61.52 10.49L61.52 10.49L61.52 10.49Q61.11 10.32 60.83 10.11L60.83 10.11L60.83 10.11Q60.51 9.87 60.27 9.56L60.27 9.56L60.27 12.22L58.39 12.22L58.39 3.29L59.85 3.29L60.21 4.24L60.21 4.24Q60.42 3.93 60.75 3.68L60.75 3.68L60.75 3.68Q61.03 3.47 61.45 3.30L61.45 3.30L61.45 3.30Q61.87 3.12 62.47 3.12L62.47 3.12L62.47 3.12Q63.29 3.12 63.87 3.42L63.87 3.42L63.87 3.42Q64.44 3.72 64.80 4.23L64.80 4.23L64.80 4.23Q65.16 4.73 65.32 5.41L65.32 5.41L65.32 5.41Q65.48 6.09 65.48 6.85L65.48 6.85L65.48 6.85Q65.48 7.60 65.32 8.29L65.32 8.29L65.32 8.29Q65.16 8.99 64.80 9.51L64.80 9.51L64.80 9.51Q64.44 10.04 63.87 10.35L63.87 10.35L63.87 10.35Q63.29 10.65 62.47 10.65ZM61.88 4.59L61.88 4.59L61.88 4.59Q61.21 4.59 60.74 5.14L60.74 5.14L60.74 5.14Q60.27 5.68 60.27 6.85L60.27 6.85L60.27 6.85Q60.27 7.99 60.74 8.60L60.74 8.60L60.74 8.60Q61.21 9.20 61.88 9.20L61.88 9.20L61.88 9.20Q62.22 9.20 62.51 9.04L62.51 9.04L62.51 9.04Q62.80 8.89 63.02 8.60L63.02 8.60L63.02 8.60Q63.24 8.30 63.37 7.86L63.37 7.86L63.37 7.86Q63.50 7.42 63.50 6.85L63.50 6.85L63.50 6.85Q63.50 6.27 63.37 5.84L63.37 5.84L63.37 5.84Q63.24 5.42 63.02 5.14L63.02 5.14L63.02 5.14Q62.80 4.86 62.51 4.72L62.51 4.72L62.51 4.72Q62.22 4.59 61.88 4.59ZM69.50 10.65L69.50 10.65L69.50 10.65Q68.84 10.65 68.36 10.49L68.36 10.49L68.36 10.49Q67.87 10.32 67.55 9.93L67.55 9.93L67.55 9.93Q67.23 9.55 67.07 8.94L67.07 8.94L67.07 8.94Q66.91 8.33 66.91 7.45L66.91 7.45L66.91 3.29L68.78 3.29L68.78 7.20L68.78 7.20Q68.78 8.23 69.06 8.71L69.06 8.71L69.06 8.71Q69.34 9.20 70.03 9.20L70.03 9.20L70.03 9.20Q70.85 9.20 71.25 8.52L71.25 8.52L71.25 8.52Q71.65 7.84 71.65 6.72L71.65 6.72L71.65 3.29L73.53 3.29L73.53 10.50L72.10 10.50L71.72 9.51L71.72 9.51Q71.72 9.51 71.58 9.68L71.58 9.68L71.58 9.68Q71.44 9.86 71.16 10.07L71.16 10.07L71.16 10.07Q70.88 10.29 70.47 10.47L70.47 10.47L70.47 10.47Q70.06 10.65 69.50 10.65ZM80.26 3.98L79.63 5.39L79.63 5.39Q79.16 5.03 78.60 4.84L78.60 4.84L78.60 4.84Q78.04 4.66 77.66 4.66L77.66 4.66L77.66 4.66Q77.29 4.66 77.08 4.79L77.08 4.79L77.08 4.79Q76.87 4.91 76.87 5.24L76.87 5.24L76.87 5.24Q76.87 5.52 77.14 5.68L77.14 5.68L77.14 5.68Q77.41 5.85 77.80 6.00L77.80 6.00L77.80 6.00Q78.19 6.15 78.65 6.31L78.65 6.31L78.65 6.31Q79.11 6.47 79.51 6.73L79.51 6.73L79.51 6.73Q79.90 6.99 80.16 7.38L80.16 7.38L80.16 7.38Q80.43 7.78 80.43 8.40L80.43 8.40L80.43 8.40Q80.43 8.99 80.21 9.41L80.21 9.41L80.21 9.41Q80.00 9.84 79.64 10.12L79.64 10.12L79.64 10.12Q79.28 10.39 78.82 10.52L78.82 10.52L78.82 10.52Q78.36 10.65 77.87 10.65L77.87 10.65L77.87 10.65Q77.52 10.65 77.12 10.58L77.12 10.58L77.12 10.58Q76.72 10.50 76.33 10.34L76.33 10.34L76.33 10.34Q75.95 10.18 75.59 9.95L75.59 9.95L75.59 9.95Q75.24 9.72 74.97 9.42L74.97 9.42L75.59 8.05L75.59 8.05Q76.08 8.58 76.64 8.86L76.64 8.86L76.64 8.86Q77.20 9.13 77.66 9.13L77.66 9.13L77.66 9.13Q78.05 9.13 78.41 8.99L78.41 8.99L78.41 8.99Q78.78 8.85 78.79 8.51L78.79 8.51L78.79 8.51Q78.81 8.19 78.55 7.99L78.55 7.99L78.55 7.99Q78.29 7.78 77.90 7.63L77.90 7.63L77.90 7.63Q77.50 7.48 77.04 7.31L77.04 7.31L77.04 7.31Q76.58 7.15 76.19 6.90L76.19 6.90L76.19 6.90Q75.80 6.65 75.53 6.27L75.53 6.27L75.53 6.27Q75.26 5.89 75.28 5.29L75.28 5.29L75.28 5.29Q75.28 4.72 75.48 4.30L75.48 4.30L75.48 4.30Q75.68 3.89 76.02 3.63L76.02 3.63L76.02 3.63Q76.36 3.37 76.80 3.25L76.80 3.25L76.80 3.25Q77.24 3.12 77.71 3.12L77.71 3.12L77.71 3.12Q77.99 3.12 78.33 3.18L78.33 3.18L78.33 3.18Q78.67 3.23 79.01 3.35L79.01 3.35L79.01 3.35Q79.35 3.46 79.68 3.61L79.68 3.61L79.68 3.61Q80.01 3.77 80.26 3.98L80.26 3.98Z"></path></g><!----><!----></svg>