<svg width="195" height="120" viewBox="0 0 195 120" fill="none" xmlns="http://www.w3.org/2000/svg">
<path d="M17.248 91.016V99.976H6.272V91.016H2.272V113H6.272V103.624H17.248V113H21.248V91.016H17.248ZM27.6593 93.96C28.8753 93.96 29.8673 92.904 29.8673 91.72C29.8673 90.536 28.8753 89.512 27.6593 89.512C26.4113 89.512 25.4193 90.536 25.4193 91.72C25.4193 92.904 26.4113 93.96 27.6593 93.96ZM25.6753 113H29.5793V96.456H25.6753V113ZM43.654 96.072C41.19 96.072 39.206 97.192 37.894 99.08V96.456H33.99V118.504H37.894V110.376C39.206 112.264 41.19 113.384 43.654 113.384C48.038 113.384 51.238 109.8 51.238 104.712C51.238 99.656 48.038 96.072 43.654 96.072ZM42.598 110.056C39.846 110.056 37.926 107.816 37.926 104.712C37.926 101.608 39.846 99.4 42.598 99.4C45.382 99.4 47.366 101.608 47.366 104.712C47.366 107.816 45.382 110.056 42.598 110.056ZM62.769 113.384C67.569 113.384 71.633 109.416 71.633 104.712C71.633 100.008 67.569 96.072 62.769 96.072C57.969 96.072 53.905 100.008 53.905 104.712C53.905 109.416 57.969 113.384 62.769 113.384ZM62.769 110.056C60.017 110.056 57.713 107.624 57.713 104.712C57.713 101.832 60.017 99.4 62.769 99.4C65.489 99.4 67.793 101.832 67.793 104.712C67.793 107.624 65.489 110.056 62.769 110.056ZM82.987 113.384C85.611 113.384 87.819 112.296 89.419 110.6L86.795 108.328C85.867 109.384 84.459 110.056 83.019 110.056C80.299 110.056 78.027 107.624 78.027 104.712C78.027 101.832 80.299 99.4 83.019 99.4C84.427 99.4 85.803 100.072 86.699 101.064L89.323 98.76C87.755 97.128 85.547 96.072 83.051 96.072C78.219 96.072 74.155 100.008 74.155 104.712C74.155 109.416 78.219 113.384 82.987 113.384ZM99.6878 96.072C97.6078 96.072 95.4318 96.648 93.0958 97.8L94.4398 100.52C95.8478 99.816 97.3518 99.272 98.9198 99.272C101.928 99.272 102.984 101.128 102.984 103.048V103.496C101.48 102.92 99.8478 102.6 98.3438 102.6C94.6318 102.6 91.5918 104.84 91.5918 108.104C91.5918 111.304 94.2478 113.384 97.7678 113.384C99.6878 113.384 101.768 112.552 102.984 111.016V113H106.792V103.048C106.792 98.856 104.072 96.072 99.6878 96.072ZM98.6318 110.536C96.7758 110.536 95.3998 109.544 95.3998 107.976C95.3998 106.408 96.9678 105.32 98.9198 105.32C100.392 105.32 101.768 105.544 102.984 105.96V107.816C102.536 109.576 100.52 110.536 98.6318 110.536ZM130.123 96.072C127.659 96.072 125.579 97.288 124.779 99.208C123.755 97.256 121.835 96.072 119.499 96.072C117.419 96.072 115.723 97.096 114.891 98.696V96.456H110.987V113H114.891V102.856C114.891 100.84 116.395 99.4 118.507 99.4C120.427 99.4 121.739 100.936 121.739 103.112V113H125.547V102.856C125.547 100.84 127.019 99.4 129.163 99.4C131.051 99.4 132.363 100.936 132.363 103.112V113H136.171V102.472C136.171 98.728 133.579 96.072 130.123 96.072ZM150.154 96.072C147.69 96.072 145.706 97.192 144.394 99.08V96.456H140.49V118.504H144.394V110.376C145.706 112.264 147.69 113.384 150.154 113.384C154.538 113.384 157.738 109.8 157.738 104.712C157.738 99.656 154.538 96.072 150.154 96.072ZM149.098 110.056C146.346 110.056 144.426 107.816 144.426 104.712C144.426 101.608 146.346 99.4 149.098 99.4C151.882 99.4 153.866 101.608 153.866 104.712C153.866 107.816 151.882 110.056 149.098 110.056ZM172.469 96.456V106.92C172.213 108.68 170.517 110.056 168.469 110.056C166.421 110.056 164.981 108.456 164.981 106.216V96.456H161.205V106.984C161.205 110.728 163.733 113.384 167.349 113.384C169.525 113.384 171.445 112.328 172.469 110.792V113H176.373V96.456H172.469ZM186.787 113.384C190.659 113.384 193.283 111.336 193.283 108.168C193.283 104.712 190.275 103.752 187.491 102.984C184.963 102.248 184.099 101.928 184.099 100.872C184.099 99.944 185.155 99.4 186.531 99.4C187.971 99.4 189.667 99.912 191.235 100.904L192.867 98.056C191.075 96.872 188.803 96.072 186.531 96.072C182.851 96.072 180.291 98.184 180.291 101.288C180.323 104.232 182.595 105.256 186.179 106.184C188.067 106.696 189.507 107.112 189.507 108.392C189.507 109.416 188.419 110.088 186.851 110.088C184.771 110.088 182.915 109.32 181.315 108.168L179.555 110.888C181.539 112.488 184.259 113.384 186.787 113.384Z" fill="#222222"/>
<path d="M75.2497 35.0016L83.0282 38.8908C81.5321 29.3733 80.8954 15.1526 85.8111 8.59801C91.9042 0.473842 96.7111 0 106.054 0C105.918 3.52041 106.596 5.41618 106.596 5.41618C106.596 5.41618 109.168 4.46829 111.47 4.06208C110.165 7.71573 111.003 15.9938 113.78 17.6402C116.556 19.2864 122 22.7302 122 22.7302L118.792 27.9108C118.792 27.9108 112.333 23.9226 112.282 23.8989C109.146 22.4132 109.337 23.4587 105.174 24.2712C100.882 25.1086 96.3725 22.4095 96.3725 22.4095C96.3725 22.4095 108.559 32.5647 108.559 44.751C108.559 56.9372 98.7559 61.9545 95.2215 66.4831C90.8887 72.0346 91.8366 80.565 99.9608 80.565C104.47 80.2028 106.41 77.1595 106.514 73.9663C106.449 73.2231 106.246 72.4912 105.902 71.8039C105.15 70.3005 103.631 69.3674 101.955 69.3788L101.937 65.3167C101.95 65.3167 101.963 65.3165 101.977 65.3165C104.597 65.3165 106.999 66.4975 108.581 68.4884C111.422 71.8138 112.432 79.1101 108.085 83.408C105.715 85.7514 102.467 87.4025 98.4036 87.4025C88.2483 87.4025 82.1552 79.2783 82.1552 71.1541C82.1552 64.6274 84.7744 56.7904 84.7523 49.7481L75.2497 54.4996C75.2497 54.4996 72 51.8237 72 44.7506C72 37.6775 75.2497 35.0016 75.2497 35.0016ZM106.528 18.347C107.649 18.347 108.559 17.4377 108.559 16.316C108.559 15.1942 107.649 14.2849 106.528 14.2849C105.406 14.2849 104.497 15.1942 104.497 16.316C104.497 17.4377 105.406 18.347 106.528 18.347Z" fill="#3D6ADD"/>
</svg>
