<svg width="227" height="64" viewBox="0 0 227 64" fill="none" xmlns="http://www.w3.org/2000/svg">
<path d="M2.37955 25.6297L8.07531 28.4776C6.97982 21.5085 6.51358 11.0954 10.1131 6.29585C14.5748 0.346969 18.0946 0 24.9358 0C24.8366 2.5778 25.3324 3.96597 25.3324 3.96597C25.3324 3.96597 27.2161 3.27188 28.9016 2.97444C27.9461 5.6498 28.5598 11.7114 30.5929 12.917C32.6259 14.1223 36.6122 16.6441 36.6122 16.6441L34.2635 20.4375C34.2635 20.4375 29.5335 17.5172 29.4965 17.4998C27.1998 16.4119 27.34 17.1775 24.2912 17.7724C21.1486 18.3856 17.8466 16.4092 17.8466 16.4092C17.8466 16.4092 26.77 23.8453 26.77 32.7687C26.77 41.692 19.5919 45.3659 17.0038 48.6819C13.8312 52.7469 14.5252 58.9933 20.4741 58.9933C23.7759 58.7281 25.1962 56.4996 25.2725 54.1614C25.2253 53.6173 25.0762 53.0813 24.8245 52.578C24.2741 51.4772 23.1618 50.7939 21.9346 50.8023L21.9209 47.8278C21.9307 47.8278 21.9402 47.8277 21.9502 47.8277C23.8687 47.8277 25.6279 48.6925 26.7862 50.1503C28.8665 52.5853 29.6061 57.928 26.423 61.0751C24.6876 62.791 22.3095 64 19.3339 64C11.8978 64 7.4361 58.0511 7.4361 52.1022C7.4361 47.3231 9.35402 41.5845 9.33781 36.4278L2.37955 39.907C2.37955 39.907 0 37.9476 0 32.7684C0 27.5891 2.37955 25.6297 2.37955 25.6297ZM25.2827 13.4345C26.1041 13.4345 26.77 12.7687 26.77 11.9473C26.77 11.1259 26.1041 10.4601 25.2827 10.4601C24.4614 10.4601 23.7955 11.1259 23.7955 11.9473C23.7955 12.7687 24.4614 13.4345 25.2827 13.4345Z" fill="#3D6ADD"/>
<path d="M59.5756 20.39V28.79H49.2856V20.39H45.5356V41H49.2856V32.21H59.5756V41H63.3256V20.39H59.5756ZM69.3361 23.15C70.4761 23.15 71.4061 22.16 71.4061 21.05C71.4061 19.94 70.4761 18.98 69.3361 18.98C68.1661 18.98 67.2361 19.94 67.2361 21.05C67.2361 22.16 68.1661 23.15 69.3361 23.15ZM67.4761 41H71.1361V25.49H67.4761V41ZM84.3312 25.13C82.0212 25.13 80.1612 26.18 78.9312 27.95V25.49H75.2712V46.16H78.9312V38.54C80.1612 40.31 82.0212 41.36 84.3312 41.36C88.4412 41.36 91.4412 38 91.4412 33.23C91.4412 28.49 88.4412 25.13 84.3312 25.13ZM83.3412 38.24C80.7612 38.24 78.9612 36.14 78.9612 33.23C78.9612 30.32 80.7612 28.25 83.3412 28.25C85.9512 28.25 87.8112 30.32 87.8112 33.23C87.8112 36.14 85.9512 38.24 83.3412 38.24ZM102.252 41.36C106.752 41.36 110.562 37.64 110.562 33.23C110.562 28.82 106.752 25.13 102.252 25.13C97.7515 25.13 93.9415 28.82 93.9415 33.23C93.9415 37.64 97.7515 41.36 102.252 41.36ZM102.252 38.24C99.6715 38.24 97.5115 35.96 97.5115 33.23C97.5115 30.53 99.6715 28.25 102.252 28.25C104.802 28.25 106.962 30.53 106.962 33.23C106.962 35.96 104.802 38.24 102.252 38.24ZM121.206 41.36C123.666 41.36 125.736 40.34 127.236 38.75L124.776 36.62C123.906 37.61 122.586 38.24 121.236 38.24C118.686 38.24 116.556 35.96 116.556 33.23C116.556 30.53 118.686 28.25 121.236 28.25C122.556 28.25 123.846 28.88 124.686 29.81L127.146 27.65C125.676 26.12 123.606 25.13 121.266 25.13C116.736 25.13 112.926 28.82 112.926 33.23C112.926 37.64 116.736 41.36 121.206 41.36ZM136.863 25.13C134.913 25.13 132.873 25.67 130.683 26.75L131.943 29.3C133.263 28.64 134.673 28.13 136.143 28.13C138.963 28.13 139.953 29.87 139.953 31.67V32.09C138.543 31.55 137.013 31.25 135.603 31.25C132.123 31.25 129.273 33.35 129.273 36.41C129.273 39.41 131.763 41.36 135.063 41.36C136.863 41.36 138.813 40.58 139.953 39.14V41H143.523V31.67C143.523 27.74 140.973 25.13 136.863 25.13ZM135.873 38.69C134.133 38.69 132.843 37.76 132.843 36.29C132.843 34.82 134.313 33.8 136.143 33.8C137.523 33.8 138.813 34.01 139.953 34.4V36.14C139.533 37.79 137.643 38.69 135.873 38.69ZM165.396 25.13C163.086 25.13 161.136 26.27 160.386 28.07C159.426 26.24 157.626 25.13 155.436 25.13C153.486 25.13 151.896 26.09 151.116 27.59V25.49H147.456V41H151.116V31.49C151.116 29.6 152.526 28.25 154.506 28.25C156.306 28.25 157.536 29.69 157.536 31.73V41H161.106V31.49C161.106 29.6 162.486 28.25 164.496 28.25C166.266 28.25 167.496 29.69 167.496 31.73V41H171.066V31.13C171.066 27.62 168.636 25.13 165.396 25.13ZM184.175 25.13C181.865 25.13 180.005 26.18 178.775 27.95V25.49H175.115V46.16H178.775V38.54C180.005 40.31 181.865 41.36 184.175 41.36C188.285 41.36 191.285 38 191.285 33.23C191.285 28.49 188.285 25.13 184.175 25.13ZM183.185 38.24C180.605 38.24 178.805 36.14 178.805 33.23C178.805 30.32 180.605 28.25 183.185 28.25C185.795 28.25 187.655 30.32 187.655 33.23C187.655 36.14 185.795 38.24 183.185 38.24ZM205.095 25.49V35.3C204.855 36.95 203.265 38.24 201.345 38.24C199.425 38.24 198.075 36.74 198.075 34.64V25.49H194.535V35.36C194.535 38.87 196.905 41.36 200.295 41.36C202.335 41.36 204.135 40.37 205.095 38.93V41H208.755V25.49H205.095ZM218.519 41.36C222.149 41.36 224.609 39.44 224.609 36.47C224.609 33.23 221.789 32.33 219.179 31.61C216.809 30.92 215.999 30.62 215.999 29.63C215.999 28.76 216.989 28.25 218.279 28.25C219.629 28.25 221.219 28.73 222.689 29.66L224.219 26.99C222.539 25.88 220.409 25.13 218.279 25.13C214.829 25.13 212.429 27.11 212.429 30.02C212.459 32.78 214.589 33.74 217.949 34.61C219.719 35.09 221.069 35.48 221.069 36.68C221.069 37.64 220.049 38.27 218.579 38.27C216.629 38.27 214.889 37.55 213.389 36.47L211.739 39.02C213.599 40.52 216.149 41.36 218.519 41.36Z" fill="#222222"/>
</svg>
